<svg width="393" height="337" viewBox="0 0 393 337" fill="none" xmlns="http://www.w3.org/2000/svg">
<path d="M371 6L359 18M359 6L371 18" stroke="#FDFDFD" stroke-width="2" stroke-linecap="round" stroke-linejoin="round"/>
<path d="M0 48C0 39.1634 7.16344 32 16 32H377C385.837 32 393 39.1634 393 48V337H0V48Z" fill="#0A0D12"/>
<path d="M22.1562 69.2891C21.0677 69.2891 20.1276 69.0495 19.3359 68.5703C18.5443 68.0911 17.9349 67.4089 17.5078 66.5234C17.0807 65.638 16.8672 64.5859 16.8672 63.3672V63.3516C16.8672 62.1328 17.0807 61.0807 17.5078 60.1953C17.9349 59.3099 18.5417 58.6302 19.3281 58.1562C20.1198 57.6771 21.0625 57.4375 22.1562 57.4375C23.0469 57.4375 23.8464 57.612 24.5547 57.9609C25.2682 58.3099 25.8438 58.7917 26.2812 59.4062C26.7188 60.0208 26.974 60.724 27.0469 61.5156V61.6172H24.7578L24.75 61.5625C24.6719 61.1406 24.513 60.7708 24.2734 60.4531C24.0339 60.1302 23.7318 59.8802 23.3672 59.7031C23.0078 59.526 22.6042 59.4375 22.1562 59.4375C21.5677 59.4375 21.0573 59.5964 20.625 59.9141C20.1927 60.2266 19.8594 60.6771 19.625 61.2656C19.3958 61.849 19.2812 62.5443 19.2812 63.3516V63.3672C19.2812 64.1693 19.3958 64.8646 19.625 65.4531C19.8594 66.0417 20.1927 66.4948 20.625 66.8125C21.0573 67.1302 21.5703 67.2891 22.1641 67.2891C22.6172 67.2891 23.0208 67.2083 23.375 67.0469C23.7344 66.8802 24.0312 66.6484 24.2656 66.3516C24.5052 66.0495 24.6641 65.6979 24.7422 65.2969L24.7578 65.2266H27.0547V65.3203C26.9714 66.1068 26.7135 66.7969 26.2812 67.3906C25.849 67.9844 25.2812 68.4505 24.5781 68.7891C23.875 69.1224 23.0677 69.2891 22.1562 69.2891ZM32.5003 69.1797C31.6201 69.1797 30.8623 69.0026 30.2269 68.6484C29.5915 68.2891 29.1045 67.776 28.7659 67.1094C28.4274 66.4375 28.2581 65.6354 28.2581 64.7031V64.6875C28.2581 63.7604 28.43 62.9635 28.7738 62.2969C29.1175 61.6302 29.6045 61.1172 30.2347 60.7578C30.8701 60.3932 31.6253 60.2109 32.5003 60.2109C33.3753 60.2109 34.1279 60.3906 34.7581 60.75C35.3935 61.1094 35.8831 61.625 36.2269 62.2969C36.5706 62.9635 36.7425 63.7604 36.7425 64.6875V64.7031C36.7425 65.6354 36.5732 66.4375 36.2347 67.1094C35.8961 67.776 35.4092 68.2891 34.7738 68.6484C34.1435 69.0026 33.3857 69.1797 32.5003 69.1797ZM32.5003 67.3906C32.9066 67.3906 33.2503 67.2839 33.5316 67.0703C33.8128 66.8568 34.029 66.5495 34.18 66.1484C34.331 65.7474 34.4066 65.2656 34.4066 64.7031V64.6875C34.4066 64.125 34.331 63.6458 34.18 63.25C34.029 62.849 33.8102 62.5417 33.5238 62.3281C33.2425 62.1094 32.9014 62 32.5003 62C32.0993 62 31.7555 62.1094 31.4691 62.3281C31.1878 62.5417 30.9717 62.849 30.8206 63.25C30.6696 63.6458 30.5941 64.125 30.5941 64.6875V64.7031C30.5941 65.2708 30.667 65.7552 30.8128 66.1562C30.9639 66.5573 31.18 66.8646 31.4613 67.0781C31.7477 67.2865 32.0941 67.3906 32.5003 67.3906ZM38.2819 69V60.3984H40.5631V61.7422H40.7038C40.886 61.2578 41.1881 60.8828 41.61 60.6172C42.0319 60.3464 42.5241 60.2109 43.0866 60.2109C43.4772 60.2109 43.8314 60.276 44.1491 60.4062C44.4668 60.5312 44.7376 60.7109 44.9616 60.9453C45.1855 61.1797 45.3574 61.4635 45.4772 61.7969H45.6178C45.748 61.4792 45.9407 61.2031 46.1959 60.9688C46.4511 60.7292 46.7506 60.5443 47.0944 60.4141C47.4381 60.2786 47.8105 60.2109 48.2116 60.2109C48.7845 60.2109 49.2767 60.3281 49.6881 60.5625C50.1048 60.7969 50.4251 61.1302 50.6491 61.5625C50.8782 61.9896 50.9928 62.5 50.9928 63.0938V69H48.7116V63.6641C48.7116 63.3151 48.6595 63.026 48.5553 62.7969C48.4511 62.5677 48.2923 62.3958 48.0788 62.2812C47.8704 62.1615 47.6074 62.1016 47.2897 62.1016C46.9824 62.1016 46.7142 62.1719 46.485 62.3125C46.261 62.4531 46.0866 62.6432 45.9616 62.8828C45.8366 63.1224 45.7741 63.3984 45.7741 63.7109V69H43.4928V63.5625C43.4928 63.2552 43.4355 62.9922 43.3209 62.7734C43.2116 62.5547 43.0501 62.388 42.8366 62.2734C42.6282 62.1589 42.3756 62.1016 42.0788 62.1016C41.7819 62.1016 41.5189 62.1771 41.2897 62.3281C41.0657 62.474 40.8886 62.6771 40.7584 62.9375C40.6282 63.1927 40.5631 63.4844 40.5631 63.8125V69H38.2819ZM52.8838 69V60.3984H55.165V61.7422H55.3056C55.4879 61.2578 55.79 60.8828 56.2119 60.6172C56.6338 60.3464 57.1259 60.2109 57.6884 60.2109C58.0791 60.2109 58.4332 60.276 58.7509 60.4062C59.0686 60.5312 59.3395 60.7109 59.5634 60.9453C59.7874 61.1797 59.9593 61.4635 60.0791 61.7969H60.2197C60.3499 61.4792 60.5426 61.2031 60.7978 60.9688C61.053 60.7292 61.3525 60.5443 61.6963 60.4141C62.04 60.2786 62.4124 60.2109 62.8134 60.2109C63.3864 60.2109 63.8785 60.3281 64.29 60.5625C64.7067 60.7969 65.027 61.1302 65.2509 61.5625C65.4801 61.9896 65.5947 62.5 65.5947 63.0938V69H63.3134V63.6641C63.3134 63.3151 63.2614 63.026 63.1572 62.7969C63.053 62.5677 62.8942 62.3958 62.6806 62.2812C62.4723 62.1615 62.2093 62.1016 61.8916 62.1016C61.5843 62.1016 61.316 62.1719 61.0869 62.3125C60.8629 62.4531 60.6884 62.6432 60.5634 62.8828C60.4384 63.1224 60.3759 63.3984 60.3759 63.7109V69H58.0947V63.5625C58.0947 63.2552 58.0374 62.9922 57.9228 62.7734C57.8134 62.5547 57.652 62.388 57.4384 62.2734C57.2301 62.1589 56.9775 62.1016 56.6806 62.1016C56.3838 62.1016 56.1207 62.1771 55.8916 62.3281C55.6676 62.474 55.4905 62.6771 55.3603 62.9375C55.2301 63.1927 55.165 63.4844 55.165 63.8125V69H52.8838ZM71.2669 69.1797C70.3971 69.1797 69.6471 69 69.0169 68.6406C68.3919 68.276 67.9101 67.7604 67.5716 67.0938C67.233 66.4271 67.0638 65.6328 67.0638 64.7109V64.7031C67.0638 63.7917 67.2304 63 67.5638 62.3281C67.9023 61.6562 68.3789 61.1354 68.9934 60.7656C69.6132 60.3958 70.3398 60.2109 71.1731 60.2109C72.0117 60.2109 72.7356 60.3906 73.345 60.75C73.9544 61.1094 74.4231 61.612 74.7513 62.2578C75.0794 62.9036 75.2434 63.6615 75.2434 64.5312V65.2422H68.2044V63.8125H74.1497L73.0794 65.1641V64.25C73.0794 63.7344 72.9986 63.3047 72.8372 62.9609C72.6809 62.6172 72.4622 62.3594 72.1809 62.1875C71.9049 62.0104 71.582 61.9219 71.2122 61.9219C70.8476 61.9219 70.5221 62.013 70.2356 62.1953C69.9544 62.3724 69.7304 62.6354 69.5638 62.9844C69.4023 63.3281 69.3216 63.75 69.3216 64.25V65.1719C69.3216 65.6562 69.4023 66.0703 69.5638 66.4141C69.7252 66.7578 69.9544 67.0208 70.2513 67.2031C70.5481 67.3854 70.9023 67.4766 71.3138 67.4766C71.6471 67.4766 71.9309 67.4271 72.1653 67.3281C72.3997 67.2292 72.5872 67.1146 72.7278 66.9844C72.8736 66.849 72.9726 66.7266 73.0247 66.6172L73.0481 66.5703H75.1731L75.1575 66.6484C75.0898 66.9193 74.9674 67.2031 74.7903 67.5C74.6132 67.7917 74.3684 68.0651 74.0559 68.3203C73.7486 68.5755 73.3632 68.7839 72.8997 68.9453C72.4414 69.1016 71.8971 69.1797 71.2669 69.1797ZM76.7906 69V60.3984H79.0719V61.7266H79.2125C79.4104 61.2578 79.7177 60.888 80.1344 60.6172C80.551 60.3464 81.0667 60.2109 81.6813 60.2109C82.6396 60.2109 83.3688 60.4922 83.8688 61.0547C84.374 61.612 84.6266 62.4062 84.6266 63.4375V69H82.3453V63.9531C82.3453 63.3438 82.2177 62.8828 81.9625 62.5703C81.7073 62.2578 81.3089 62.1016 80.7672 62.1016C80.4182 62.1016 80.1161 62.1823 79.8609 62.3438C79.6109 62.5 79.4156 62.7214 79.275 63.0078C79.1396 63.2943 79.0719 63.6328 79.0719 64.0234V69H76.7906ZM90.0878 69.0312C89.0461 69.0312 88.2961 68.849 87.8378 68.4844C87.3795 68.1146 87.1503 67.513 87.1503 66.6797V62.1172H85.8222V60.3984H87.1503V58.3438H89.455V60.3984H91.2284V62.1172H89.455V66.1562C89.455 66.5417 89.5409 66.8255 89.7128 67.0078C89.8899 67.1849 90.1711 67.2734 90.5566 67.2734C90.7024 67.2734 90.8222 67.2708 90.9159 67.2656C91.0149 67.2552 91.1191 67.2448 91.2284 67.2344V68.9297C91.0878 68.9557 90.9185 68.9792 90.7206 69C90.5227 69.0208 90.3118 69.0312 90.0878 69.0312ZM96.1506 69.1797C95.3694 69.1797 94.7027 69.0729 94.1506 68.8594C93.6038 68.6406 93.1741 68.3411 92.8616 67.9609C92.5543 67.5807 92.3746 67.1458 92.3225 66.6562L92.3147 66.625H94.5569L94.5725 66.6562C94.6663 66.9219 94.8433 67.1406 95.1038 67.3125C95.3694 67.4844 95.7261 67.5703 96.1741 67.5703C96.4657 67.5703 96.7209 67.5312 96.9397 67.4531C97.1584 67.3698 97.3303 67.2578 97.4553 67.1172C97.5803 66.9766 97.6428 66.8125 97.6428 66.625V66.6094C97.6428 66.3802 97.5491 66.1901 97.3616 66.0391C97.1741 65.888 96.8616 65.763 96.4241 65.6641L94.9866 65.3594C94.4397 65.2448 93.984 65.0781 93.6194 64.8594C93.2548 64.6354 92.9814 64.362 92.7991 64.0391C92.622 63.7161 92.5334 63.3411 92.5334 62.9141V62.9062C92.5334 62.3646 92.6819 61.8932 92.9788 61.4922C93.2808 61.0859 93.7001 60.7708 94.2366 60.5469C94.7782 60.3229 95.4058 60.2109 96.1194 60.2109C96.8694 60.2109 97.5074 60.3255 98.0334 60.5547C98.5595 60.7786 98.9631 61.0807 99.2444 61.4609C99.5308 61.8359 99.6897 62.2552 99.7209 62.7188V62.75H97.6038L97.5959 62.7109C97.5334 62.4766 97.3772 62.2708 97.1272 62.0938C96.8772 61.9115 96.5386 61.8203 96.1116 61.8203C95.8511 61.8203 95.6194 61.8594 95.4163 61.9375C95.2131 62.0156 95.0517 62.125 94.9319 62.2656C94.8173 62.4062 94.76 62.5729 94.76 62.7656V62.7734C94.76 62.9245 94.7991 63.0573 94.8772 63.1719C94.9553 63.2865 95.0829 63.3854 95.26 63.4688C95.4371 63.5521 95.6741 63.6276 95.9709 63.6953L97.4006 64C98.26 64.1875 98.8954 64.4688 99.3069 64.8438C99.7183 65.2188 99.9241 65.724 99.9241 66.3594V66.3672C99.9241 66.9349 99.7626 67.4297 99.4397 67.8516C99.1168 68.2734 98.6715 68.6016 98.1038 68.8359C97.536 69.0651 96.885 69.1797 96.1506 69.1797Z" fill="#FDFDFD"/>
<path d="M128.709 157.5V146.227H130.677L136.482 154.242L134.834 153.406H136.006V146.227H138.263V157.5H136.31L130.49 149.453L132.146 150.289H130.967V157.5H128.709ZM144.279 157.68C143.399 157.68 142.641 157.503 142.006 157.148C141.371 156.789 140.884 156.276 140.545 155.609C140.206 154.938 140.037 154.135 140.037 153.203V153.188C140.037 152.26 140.209 151.464 140.553 150.797C140.897 150.13 141.384 149.617 142.014 149.258C142.649 148.893 143.404 148.711 144.279 148.711C145.154 148.711 145.907 148.891 146.537 149.25C147.173 149.609 147.662 150.125 148.006 150.797C148.35 151.464 148.522 152.26 148.522 153.188V153.203C148.522 154.135 148.352 154.938 148.014 155.609C147.675 156.276 147.188 156.789 146.553 157.148C145.923 157.503 145.165 157.68 144.279 157.68ZM144.279 155.891C144.686 155.891 145.029 155.784 145.311 155.57C145.592 155.357 145.808 155.049 145.959 154.648C146.11 154.247 146.186 153.766 146.186 153.203V153.188C146.186 152.625 146.11 152.146 145.959 151.75C145.808 151.349 145.589 151.042 145.303 150.828C145.022 150.609 144.68 150.5 144.279 150.5C143.878 150.5 143.535 150.609 143.248 150.828C142.967 151.042 142.751 151.349 142.6 151.75C142.449 152.146 142.373 152.625 142.373 153.188V153.203C142.373 153.771 142.446 154.255 142.592 154.656C142.743 155.057 142.959 155.365 143.24 155.578C143.527 155.786 143.873 155.891 144.279 155.891ZM158.882 157.789C157.793 157.789 156.853 157.549 156.061 157.07C155.27 156.591 154.66 155.909 154.233 155.023C153.806 154.138 153.592 153.086 153.592 151.867V151.852C153.592 150.633 153.806 149.581 154.233 148.695C154.66 147.81 155.267 147.13 156.053 146.656C156.845 146.177 157.788 145.938 158.882 145.938C159.772 145.938 160.572 146.112 161.28 146.461C161.994 146.81 162.569 147.292 163.007 147.906C163.444 148.521 163.699 149.224 163.772 150.016V150.117H161.483L161.475 150.062C161.397 149.641 161.238 149.271 160.999 148.953C160.759 148.63 160.457 148.38 160.092 148.203C159.733 148.026 159.329 147.938 158.882 147.938C158.293 147.938 157.783 148.096 157.35 148.414C156.918 148.727 156.585 149.177 156.35 149.766C156.121 150.349 156.007 151.044 156.007 151.852V151.867C156.007 152.669 156.121 153.365 156.35 153.953C156.585 154.542 156.918 154.995 157.35 155.312C157.783 155.63 158.296 155.789 158.889 155.789C159.342 155.789 159.746 155.708 160.1 155.547C160.46 155.38 160.757 155.148 160.991 154.852C161.231 154.549 161.389 154.198 161.467 153.797L161.483 153.727H163.78V153.82C163.697 154.607 163.439 155.297 163.007 155.891C162.574 156.484 162.007 156.951 161.303 157.289C160.6 157.622 159.793 157.789 158.882 157.789ZM169.226 157.68C168.345 157.68 167.588 157.503 166.952 157.148C166.317 156.789 165.83 156.276 165.491 155.609C165.153 154.938 164.983 154.135 164.983 153.203V153.188C164.983 152.26 165.155 151.464 165.499 150.797C165.843 150.13 166.33 149.617 166.96 149.258C167.595 148.893 168.351 148.711 169.226 148.711C170.101 148.711 170.853 148.891 171.483 149.25C172.119 149.609 172.608 150.125 172.952 150.797C173.296 151.464 173.468 152.26 173.468 153.188V153.203C173.468 154.135 173.299 154.938 172.96 155.609C172.621 156.276 172.134 156.789 171.499 157.148C170.869 157.503 170.111 157.68 169.226 157.68ZM169.226 155.891C169.632 155.891 169.976 155.784 170.257 155.57C170.538 155.357 170.754 155.049 170.905 154.648C171.056 154.247 171.132 153.766 171.132 153.203V153.188C171.132 152.625 171.056 152.146 170.905 151.75C170.754 151.349 170.536 151.042 170.249 150.828C169.968 150.609 169.627 150.5 169.226 150.5C168.825 150.5 168.481 150.609 168.194 150.828C167.913 151.042 167.697 151.349 167.546 151.75C167.395 152.146 167.319 152.625 167.319 153.188V153.203C167.319 153.771 167.392 154.255 167.538 154.656C167.689 155.057 167.905 155.365 168.187 155.578C168.473 155.786 168.819 155.891 169.226 155.891ZM175.007 157.5V148.898H177.288V150.242H177.429C177.611 149.758 177.913 149.383 178.335 149.117C178.757 148.846 179.249 148.711 179.812 148.711C180.202 148.711 180.557 148.776 180.874 148.906C181.192 149.031 181.463 149.211 181.687 149.445C181.911 149.68 182.083 149.964 182.202 150.297H182.343C182.473 149.979 182.666 149.703 182.921 149.469C183.176 149.229 183.476 149.044 183.82 148.914C184.163 148.779 184.536 148.711 184.937 148.711C185.51 148.711 186.002 148.828 186.413 149.062C186.83 149.297 187.15 149.63 187.374 150.062C187.604 150.49 187.718 151 187.718 151.594V157.5H185.437V152.164C185.437 151.815 185.385 151.526 185.281 151.297C185.176 151.068 185.018 150.896 184.804 150.781C184.596 150.661 184.333 150.602 184.015 150.602C183.708 150.602 183.439 150.672 183.21 150.812C182.986 150.953 182.812 151.143 182.687 151.383C182.562 151.622 182.499 151.898 182.499 152.211V157.5H180.218V152.062C180.218 151.755 180.161 151.492 180.046 151.273C179.937 151.055 179.775 150.888 179.562 150.773C179.354 150.659 179.101 150.602 178.804 150.602C178.507 150.602 178.244 150.677 178.015 150.828C177.791 150.974 177.614 151.177 177.484 151.438C177.354 151.693 177.288 151.984 177.288 152.312V157.5H175.007ZM189.609 157.5V148.898H191.89V150.242H192.031C192.213 149.758 192.515 149.383 192.937 149.117C193.359 148.846 193.851 148.711 194.414 148.711C194.804 148.711 195.159 148.776 195.476 148.906C195.794 149.031 196.065 149.211 196.289 149.445C196.513 149.68 196.685 149.964 196.804 150.297H196.945C197.075 149.979 197.268 149.703 197.523 149.469C197.778 149.229 198.078 149.044 198.422 148.914C198.765 148.779 199.138 148.711 199.539 148.711C200.112 148.711 200.604 148.828 201.015 149.062C201.432 149.297 201.752 149.63 201.976 150.062C202.205 150.49 202.32 151 202.32 151.594V157.5H200.039V152.164C200.039 151.815 199.987 151.526 199.883 151.297C199.778 151.068 199.619 150.896 199.406 150.781C199.198 150.661 198.935 150.602 198.617 150.602C198.31 150.602 198.041 150.672 197.812 150.812C197.588 150.953 197.414 151.143 197.289 151.383C197.164 151.622 197.101 151.898 197.101 152.211V157.5H194.82V152.062C194.82 151.755 194.763 151.492 194.648 151.273C194.539 151.055 194.377 150.888 194.164 150.773C193.955 150.659 193.703 150.602 193.406 150.602C193.109 150.602 192.846 150.677 192.617 150.828C192.393 150.974 192.216 151.177 192.086 151.438C191.955 151.693 191.89 151.984 191.89 152.312V157.5H189.609ZM207.992 157.68C207.122 157.68 206.372 157.5 205.742 157.141C205.117 156.776 204.635 156.26 204.297 155.594C203.958 154.927 203.789 154.133 203.789 153.211V153.203C203.789 152.292 203.956 151.5 204.289 150.828C204.628 150.156 205.104 149.635 205.719 149.266C206.339 148.896 207.065 148.711 207.898 148.711C208.737 148.711 209.461 148.891 210.07 149.25C210.68 149.609 211.148 150.112 211.477 150.758C211.805 151.404 211.969 152.161 211.969 153.031V153.742H204.93V152.312H210.875L209.805 153.664V152.75C209.805 152.234 209.724 151.805 209.562 151.461C209.406 151.117 209.188 150.859 208.906 150.688C208.63 150.51 208.307 150.422 207.938 150.422C207.573 150.422 207.247 150.513 206.961 150.695C206.68 150.872 206.456 151.135 206.289 151.484C206.128 151.828 206.047 152.25 206.047 152.75V153.672C206.047 154.156 206.128 154.57 206.289 154.914C206.451 155.258 206.68 155.521 206.977 155.703C207.273 155.885 207.628 155.977 208.039 155.977C208.372 155.977 208.656 155.927 208.891 155.828C209.125 155.729 209.312 155.615 209.453 155.484C209.599 155.349 209.698 155.227 209.75 155.117L209.773 155.07H211.898L211.883 155.148C211.815 155.419 211.693 155.703 211.516 156C211.339 156.292 211.094 156.565 210.781 156.82C210.474 157.076 210.089 157.284 209.625 157.445C209.167 157.602 208.622 157.68 207.992 157.68ZM213.516 157.5V148.898H215.797V150.227H215.938C216.136 149.758 216.443 149.388 216.86 149.117C217.276 148.846 217.792 148.711 218.407 148.711C219.365 148.711 220.094 148.992 220.594 149.555C221.099 150.112 221.352 150.906 221.352 151.938V157.5H219.071V152.453C219.071 151.844 218.943 151.383 218.688 151.07C218.433 150.758 218.034 150.602 217.492 150.602C217.144 150.602 216.841 150.682 216.586 150.844C216.336 151 216.141 151.221 216 151.508C215.865 151.794 215.797 152.133 215.797 152.523V157.5H213.516ZM226.813 157.531C225.771 157.531 225.021 157.349 224.563 156.984C224.105 156.615 223.876 156.013 223.876 155.18V150.617H222.548V148.898H223.876V146.844H226.18V148.898H227.954V150.617H226.18V154.656C226.18 155.042 226.266 155.326 226.438 155.508C226.615 155.685 226.896 155.773 227.282 155.773C227.428 155.773 227.548 155.771 227.641 155.766C227.74 155.755 227.844 155.745 227.954 155.734V157.43C227.813 157.456 227.644 157.479 227.446 157.5C227.248 157.521 227.037 157.531 226.813 157.531ZM232.876 157.68C232.095 157.68 231.428 157.573 230.876 157.359C230.329 157.141 229.899 156.841 229.587 156.461C229.28 156.081 229.1 155.646 229.048 155.156L229.04 155.125H231.282L231.298 155.156C231.392 155.422 231.569 155.641 231.829 155.812C232.095 155.984 232.451 156.07 232.899 156.07C233.191 156.07 233.446 156.031 233.665 155.953C233.884 155.87 234.056 155.758 234.181 155.617C234.306 155.477 234.368 155.312 234.368 155.125V155.109C234.368 154.88 234.274 154.69 234.087 154.539C233.899 154.388 233.587 154.263 233.149 154.164L231.712 153.859C231.165 153.745 230.709 153.578 230.345 153.359C229.98 153.135 229.707 152.862 229.524 152.539C229.347 152.216 229.259 151.841 229.259 151.414V151.406C229.259 150.865 229.407 150.393 229.704 149.992C230.006 149.586 230.425 149.271 230.962 149.047C231.504 148.823 232.131 148.711 232.845 148.711C233.595 148.711 234.233 148.826 234.759 149.055C235.285 149.279 235.688 149.581 235.97 149.961C236.256 150.336 236.415 150.755 236.446 151.219V151.25H234.329L234.321 151.211C234.259 150.977 234.103 150.771 233.853 150.594C233.603 150.411 233.264 150.32 232.837 150.32C232.576 150.32 232.345 150.359 232.142 150.438C231.938 150.516 231.777 150.625 231.657 150.766C231.543 150.906 231.485 151.073 231.485 151.266V151.273C231.485 151.424 231.524 151.557 231.603 151.672C231.681 151.786 231.808 151.885 231.985 151.969C232.162 152.052 232.399 152.128 232.696 152.195L234.126 152.5C234.985 152.688 235.621 152.969 236.032 153.344C236.444 153.719 236.649 154.224 236.649 154.859V154.867C236.649 155.435 236.488 155.93 236.165 156.352C235.842 156.773 235.397 157.102 234.829 157.336C234.261 157.565 233.61 157.68 232.876 157.68ZM243.025 160.531C242.895 160.531 242.759 160.529 242.619 160.523C242.478 160.518 242.34 160.513 242.205 160.508V158.789C242.283 158.799 242.374 158.805 242.478 158.805C242.587 158.81 242.694 158.812 242.798 158.812C243.205 158.812 243.528 158.732 243.767 158.57C244.007 158.409 244.166 158.161 244.244 157.828L244.322 157.5L241.298 148.898H243.806L245.861 156.32L245.337 155.414H246.017L245.517 156.32L247.572 148.898H249.978L247.048 157.492C246.798 158.247 246.494 158.846 246.134 159.289C245.78 159.737 245.351 160.055 244.845 160.242C244.34 160.435 243.733 160.531 243.025 160.531ZM254.666 157.68C253.796 157.68 253.046 157.5 252.416 157.141C251.791 156.776 251.309 156.26 250.971 155.594C250.632 154.927 250.463 154.133 250.463 153.211V153.203C250.463 152.292 250.629 151.5 250.963 150.828C251.301 150.156 251.778 149.635 252.392 149.266C253.012 148.896 253.739 148.711 254.572 148.711C255.411 148.711 256.135 148.891 256.744 149.25C257.353 149.609 257.822 150.112 258.15 150.758C258.478 151.404 258.642 152.161 258.642 153.031V153.742H251.603V152.312H257.549L256.478 153.664V152.75C256.478 152.234 256.398 151.805 256.236 151.461C256.08 151.117 255.861 150.859 255.58 150.688C255.304 150.51 254.981 150.422 254.611 150.422C254.247 150.422 253.921 150.513 253.635 150.695C253.353 150.872 253.129 151.135 252.963 151.484C252.801 151.828 252.721 152.25 252.721 152.75V153.672C252.721 154.156 252.801 154.57 252.963 154.914C253.124 155.258 253.353 155.521 253.65 155.703C253.947 155.885 254.301 155.977 254.713 155.977C255.046 155.977 255.33 155.927 255.564 155.828C255.799 155.729 255.986 155.615 256.127 155.484C256.273 155.349 256.372 155.227 256.424 155.117L256.447 155.07H258.572L258.557 155.148C258.489 155.419 258.366 155.703 258.189 156C258.012 156.292 257.767 156.565 257.455 156.82C257.148 157.076 256.762 157.284 256.299 157.445C255.84 157.602 255.296 157.68 254.666 157.68ZM263.76 157.531C262.718 157.531 261.968 157.349 261.51 156.984C261.052 156.615 260.823 156.013 260.823 155.18V150.617H259.494V148.898H260.823V146.844H263.127V148.898H264.901V150.617H263.127V154.656C263.127 155.042 263.213 155.326 263.385 155.508C263.562 155.685 263.843 155.773 264.229 155.773C264.375 155.773 264.494 155.771 264.588 155.766C264.687 155.755 264.791 155.745 264.901 155.734V157.43C264.76 157.456 264.591 157.479 264.393 157.5C264.195 157.521 263.984 157.531 263.76 157.531Z" fill="#FDFDFD"/>
<path d="M130.903 189.732C130.183 189.732 129.554 189.616 129.016 189.384C128.483 189.147 128.059 188.823 127.745 188.413C127.435 187.998 127.255 187.524 127.205 186.991L127.198 186.916H128.428L128.435 186.991C128.467 187.319 128.592 187.604 128.811 187.846C129.034 188.083 129.331 188.267 129.7 188.399C130.073 188.532 130.497 188.598 130.971 188.598C131.418 188.598 131.814 188.527 132.161 188.386C132.512 188.24 132.787 188.039 132.988 187.784C133.188 187.529 133.289 187.235 133.289 186.902V186.896C133.289 186.485 133.138 186.141 132.837 185.863C132.537 185.581 132.047 185.364 131.368 185.214L130.274 184.975C129.285 184.756 128.565 184.419 128.114 183.963C127.667 183.503 127.444 182.915 127.444 182.199V182.192C127.448 181.646 127.597 181.162 127.888 180.743C128.184 180.324 128.592 179.996 129.112 179.759C129.636 179.522 130.238 179.403 130.917 179.403C131.573 179.403 132.154 179.522 132.66 179.759C133.166 179.991 133.567 180.306 133.863 180.702C134.164 181.099 134.33 181.543 134.362 182.035L134.369 182.131H133.138L133.125 182.042C133.079 181.75 132.961 181.493 132.769 181.27C132.578 181.042 132.322 180.862 132.003 180.729C131.684 180.597 131.311 180.534 130.882 180.538C130.472 180.538 130.103 180.602 129.775 180.729C129.447 180.857 129.185 181.042 128.989 181.283C128.797 181.52 128.702 181.812 128.702 182.158V182.165C128.702 182.557 128.848 182.887 129.139 183.156C129.431 183.425 129.912 183.632 130.582 183.778L131.675 184.024C132.364 184.175 132.917 184.371 133.336 184.612C133.756 184.854 134.061 185.15 134.253 185.501C134.448 185.847 134.546 186.257 134.546 186.731V186.738C134.546 187.354 134.396 187.884 134.095 188.331C133.794 188.778 133.371 189.124 132.824 189.37C132.277 189.612 131.637 189.732 130.903 189.732ZM138.785 189.555C138.028 189.555 137.479 189.402 137.138 189.097C136.8 188.791 136.632 188.288 136.632 187.586V183.115H135.47V182.131H136.632V180.224H137.862V182.131H139.475V183.115H137.862V187.285C137.862 187.718 137.944 188.03 138.108 188.222C138.272 188.409 138.546 188.502 138.929 188.502C139.033 188.502 139.122 188.5 139.195 188.495C139.273 188.491 139.366 188.484 139.475 188.475V189.486C139.362 189.505 139.248 189.521 139.134 189.534C139.02 189.548 138.903 189.555 138.785 189.555ZM142.996 189.63C142.531 189.63 142.112 189.541 141.738 189.363C141.369 189.186 141.075 188.933 140.857 188.604C140.642 188.276 140.535 187.889 140.535 187.442V187.429C140.535 186.991 140.64 186.618 140.85 186.308C141.059 185.993 141.365 185.747 141.766 185.569C142.167 185.392 142.652 185.287 143.222 185.255L145.929 185.091V186.041L143.365 186.205C142.805 186.237 142.395 186.353 142.135 186.554C141.88 186.754 141.752 187.037 141.752 187.401V187.415C141.752 187.789 141.893 188.08 142.176 188.29C142.458 188.495 142.814 188.598 143.242 188.598C143.648 188.598 144.008 188.518 144.322 188.358C144.637 188.194 144.883 187.973 145.061 187.695C145.243 187.417 145.334 187.103 145.334 186.752V184.455C145.334 183.999 145.195 183.653 144.917 183.416C144.644 183.174 144.231 183.054 143.68 183.054C143.238 183.054 142.875 183.133 142.593 183.293C142.31 183.448 142.121 183.669 142.026 183.956L142.019 183.977H140.829L140.836 183.936C140.9 183.548 141.059 183.211 141.315 182.924C141.574 182.632 141.909 182.407 142.319 182.247C142.73 182.083 143.197 182.001 143.721 182.001C144.322 182.001 144.831 182.099 145.245 182.295C145.665 182.491 145.981 182.773 146.195 183.143C146.414 183.507 146.524 183.945 146.524 184.455V189.5H145.334V188.413H145.225C145.07 188.673 144.881 188.894 144.657 189.076C144.439 189.258 144.19 189.397 143.912 189.493C143.634 189.584 143.329 189.63 142.996 189.63ZM148.417 189.5V182.131H149.607V183.225H149.716C149.857 182.837 150.097 182.536 150.434 182.322C150.771 182.108 151.188 182.001 151.685 182.001C151.799 182.001 151.911 182.008 152.02 182.021C152.134 182.031 152.22 182.04 152.28 182.049V183.204C152.157 183.181 152.036 183.165 151.917 183.156C151.803 183.143 151.68 183.136 151.548 183.136C151.17 183.136 150.835 183.211 150.543 183.361C150.252 183.512 150.022 183.721 149.853 183.99C149.689 184.259 149.607 184.574 149.607 184.934V189.5H148.417ZM156.224 189.555C155.468 189.555 154.919 189.402 154.577 189.097C154.24 188.791 154.071 188.288 154.071 187.586V183.115H152.909V182.131H154.071V180.224H155.301V182.131H156.915V183.115H155.301V187.285C155.301 187.718 155.383 188.03 155.548 188.222C155.712 188.409 155.985 188.502 156.368 188.502C156.473 188.502 156.562 188.5 156.634 188.495C156.712 188.491 156.805 188.484 156.915 188.475V189.486C156.801 189.505 156.687 189.521 156.573 189.534C156.459 189.548 156.343 189.555 156.224 189.555ZM164.688 189.555C163.931 189.555 163.382 189.402 163.04 189.097C162.703 188.791 162.534 188.288 162.534 187.586V183.115H161.372V182.131H162.534V180.224H163.765V182.131H165.378V183.115H163.765V187.285C163.765 187.718 163.847 188.03 164.011 188.222C164.175 188.409 164.448 188.502 164.831 188.502C164.936 188.502 165.025 188.5 165.098 188.495C165.175 188.491 165.269 188.484 165.378 188.475V189.486C165.264 189.505 165.15 189.521 165.036 189.534C164.922 189.548 164.806 189.555 164.688 189.555ZM166.944 189.5V179.205H168.133V183.238H168.243C168.43 182.846 168.698 182.543 169.049 182.329C169.4 182.11 169.847 182.001 170.389 182.001C170.941 182.001 171.408 182.108 171.791 182.322C172.173 182.532 172.465 182.84 172.666 183.245C172.866 183.651 172.966 184.145 172.966 184.729V189.5H171.777V185.016C171.777 184.35 171.636 183.858 171.353 183.539C171.075 183.215 170.642 183.054 170.054 183.054C169.662 183.054 169.323 183.138 169.036 183.307C168.749 183.475 168.525 183.715 168.366 184.024C168.211 184.334 168.133 184.706 168.133 185.139V189.5H166.944ZM177.847 189.63C177.146 189.63 176.542 189.475 176.036 189.165C175.535 188.855 175.147 188.418 174.874 187.853C174.605 187.283 174.471 186.613 174.471 185.843V185.836C174.471 185.075 174.605 184.407 174.874 183.833C175.147 183.259 175.532 182.81 176.029 182.486C176.526 182.163 177.107 182.001 177.772 182.001C178.442 182.001 179.016 182.156 179.495 182.466C179.978 182.776 180.347 183.209 180.602 183.765C180.862 184.316 180.992 184.959 180.992 185.692V186.157H175.086V185.207H180.384L179.796 186.075V185.604C179.796 185.025 179.709 184.549 179.536 184.175C179.363 183.801 179.123 183.523 178.818 183.341C178.513 183.154 178.162 183.061 177.765 183.061C177.369 183.061 177.013 183.159 176.699 183.354C176.389 183.546 176.143 183.831 175.961 184.209C175.778 184.587 175.687 185.052 175.687 185.604V186.075C175.687 186.599 175.776 187.048 175.954 187.422C176.132 187.791 176.385 188.076 176.713 188.276C177.041 188.472 177.428 188.57 177.875 188.57C178.207 188.57 178.497 188.525 178.743 188.434C178.989 188.342 179.192 188.226 179.351 188.085C179.511 187.944 179.623 187.8 179.686 187.654L179.714 187.593H180.903L180.889 187.647C180.826 187.898 180.712 188.142 180.548 188.379C180.388 188.611 180.181 188.823 179.926 189.015C179.67 189.201 179.367 189.352 179.016 189.466C178.67 189.575 178.28 189.63 177.847 189.63ZM189.23 189.63C188.542 189.63 187.945 189.473 187.439 189.158C186.933 188.844 186.541 188.399 186.263 187.825C185.985 187.251 185.846 186.574 185.846 185.795V185.781C185.846 185.016 185.983 184.35 186.256 183.785C186.534 183.22 186.926 182.783 187.432 182.473C187.938 182.158 188.535 182.001 189.223 182.001C189.82 182.001 190.335 182.106 190.768 182.315C191.201 182.525 191.547 182.808 191.807 183.163C192.067 183.514 192.233 183.908 192.306 184.346L192.313 184.387H191.13L191.123 184.366C191.032 184.002 190.825 183.692 190.501 183.437C190.178 183.181 189.752 183.054 189.223 183.054C188.781 183.054 188.398 183.165 188.075 183.389C187.751 183.612 187.5 183.929 187.323 184.339C187.149 184.744 187.063 185.225 187.063 185.781V185.795C187.063 186.36 187.152 186.852 187.329 187.271C187.507 187.686 187.758 188.007 188.081 188.235C188.405 188.463 188.786 188.577 189.223 188.577C189.72 188.577 190.125 188.47 190.44 188.256C190.754 188.042 190.98 187.729 191.117 187.319L191.13 187.278L192.306 187.271L192.292 187.347C192.192 187.789 192.014 188.183 191.759 188.529C191.504 188.871 191.167 189.14 190.747 189.336C190.328 189.532 189.822 189.63 189.23 189.63ZM196.798 189.63C196.1 189.63 195.496 189.477 194.986 189.172C194.48 188.862 194.088 188.422 193.81 187.853C193.537 187.283 193.4 186.606 193.4 185.822V185.809C193.4 185.02 193.537 184.341 193.81 183.771C194.088 183.202 194.48 182.764 194.986 182.459C195.496 182.154 196.1 182.001 196.798 182.001C197.499 182.001 198.103 182.154 198.609 182.459C199.115 182.764 199.505 183.202 199.778 183.771C200.056 184.341 200.195 185.02 200.195 185.809V185.822C200.195 186.606 200.056 187.283 199.778 187.853C199.505 188.422 199.115 188.862 198.609 189.172C198.103 189.477 197.499 189.63 196.798 189.63ZM196.798 188.577C197.262 188.577 197.657 188.468 197.98 188.249C198.304 188.03 198.55 187.716 198.718 187.306C198.892 186.896 198.978 186.401 198.978 185.822V185.809C198.978 185.225 198.892 184.729 198.718 184.318C198.55 183.908 198.304 183.596 197.98 183.382C197.657 183.163 197.262 183.054 196.798 183.054C196.333 183.054 195.938 183.163 195.615 183.382C195.291 183.596 195.043 183.908 194.87 184.318C194.701 184.729 194.617 185.225 194.617 185.809V185.822C194.617 186.401 194.701 186.896 194.87 187.306C195.043 187.716 195.291 188.03 195.615 188.249C195.938 188.468 196.333 188.577 196.798 188.577ZM201.761 189.5V182.131H202.95V183.238H203.059C203.246 182.846 203.515 182.543 203.866 182.329C204.217 182.11 204.664 182.001 205.206 182.001C206.035 182.001 206.671 182.238 207.113 182.712C207.56 183.181 207.783 183.854 207.783 184.729V189.5H206.594V185.016C206.594 184.35 206.452 183.858 206.17 183.539C205.892 183.215 205.459 183.054 204.871 183.054C204.479 183.054 204.14 183.138 203.852 183.307C203.565 183.475 203.342 183.715 203.183 184.024C203.028 184.334 202.95 184.706 202.95 185.139V189.5H201.761ZM211.468 189.5L208.74 182.131H209.998L212.015 188.201H212.124L214.141 182.131H215.399L212.671 189.5H211.468ZM219.425 189.63C218.723 189.63 218.12 189.475 217.614 189.165C217.112 188.855 216.725 188.418 216.452 187.853C216.183 187.283 216.048 186.613 216.048 185.843V185.836C216.048 185.075 216.183 184.407 216.452 183.833C216.725 183.259 217.11 182.81 217.607 182.486C218.104 182.163 218.685 182.001 219.35 182.001C220.02 182.001 220.594 182.156 221.073 182.466C221.556 182.776 221.925 183.209 222.18 183.765C222.44 184.316 222.57 184.959 222.57 185.692V186.157H216.664V185.207H221.961L221.374 186.075V185.604C221.374 185.025 221.287 184.549 221.114 184.175C220.941 183.801 220.701 183.523 220.396 183.341C220.091 183.154 219.74 183.061 219.343 183.061C218.947 183.061 218.591 183.159 218.277 183.354C217.967 183.546 217.721 183.831 217.539 184.209C217.356 184.587 217.265 185.052 217.265 185.604V186.075C217.265 186.599 217.354 187.048 217.532 187.422C217.709 187.791 217.962 188.076 218.291 188.276C218.619 188.472 219.006 188.57 219.453 188.57C219.785 188.57 220.075 188.525 220.321 188.434C220.567 188.342 220.77 188.226 220.929 188.085C221.089 187.944 221.2 187.8 221.264 187.654L221.291 187.593H222.481L222.467 187.647C222.403 187.898 222.29 188.142 222.125 188.379C221.966 188.611 221.759 188.823 221.503 189.015C221.248 189.201 220.945 189.352 220.594 189.466C220.248 189.575 219.858 189.63 219.425 189.63ZM224.136 189.5V182.131H225.325V183.225H225.434C225.576 182.837 225.815 182.536 226.152 182.322C226.489 182.108 226.906 182.001 227.403 182.001C227.517 182.001 227.629 182.008 227.738 182.021C227.852 182.031 227.939 182.04 227.998 182.049V183.204C227.875 183.181 227.754 183.165 227.636 183.156C227.522 183.143 227.399 183.136 227.266 183.136C226.888 183.136 226.553 183.211 226.261 183.361C225.97 183.512 225.74 183.721 225.571 183.99C225.407 184.259 225.325 184.574 225.325 184.934V189.5H224.136ZM231.58 189.63C231.033 189.63 230.55 189.548 230.131 189.384C229.712 189.215 229.374 188.98 229.119 188.68C228.869 188.379 228.72 188.026 228.675 187.62H229.892C229.992 187.925 230.188 188.172 230.48 188.358C230.771 188.545 231.152 188.639 231.621 188.639C231.954 188.639 232.245 188.591 232.496 188.495C232.751 188.395 232.952 188.26 233.098 188.092C233.244 187.919 233.316 187.72 233.316 187.497V187.483C233.316 187.233 233.216 187.021 233.016 186.848C232.815 186.67 232.487 186.526 232.031 186.417L230.89 186.144C230.429 186.034 230.051 185.893 229.755 185.72C229.459 185.542 229.24 185.326 229.099 185.07C228.957 184.811 228.887 184.505 228.887 184.154V184.147C228.887 183.737 229.005 183.37 229.242 183.047C229.484 182.723 229.812 182.468 230.227 182.281C230.641 182.094 231.108 182.001 231.628 182.001C232.143 182.001 232.599 182.083 232.995 182.247C233.396 182.407 233.717 182.634 233.959 182.931C234.205 183.227 234.355 183.576 234.41 183.977H233.241C233.164 183.685 232.986 183.448 232.708 183.266C232.43 183.083 232.068 182.992 231.621 182.992C231.329 182.992 231.07 183.04 230.842 183.136C230.614 183.227 230.434 183.354 230.302 183.519C230.17 183.683 230.104 183.874 230.104 184.093V184.106C230.104 184.271 230.147 184.416 230.233 184.544C230.32 184.672 230.454 184.783 230.637 184.879C230.819 184.975 231.054 185.059 231.341 185.132L232.476 185.405C233.168 185.574 233.683 185.815 234.021 186.13C234.362 186.444 234.533 186.866 234.533 187.395V187.408C234.533 187.846 234.403 188.233 234.144 188.57C233.884 188.903 233.531 189.163 233.084 189.35C232.642 189.536 232.141 189.63 231.58 189.63ZM238.122 189.63C237.658 189.63 237.238 189.541 236.865 189.363C236.495 189.186 236.201 188.933 235.983 188.604C235.769 188.276 235.661 187.889 235.661 187.442V187.429C235.661 186.991 235.766 186.618 235.976 186.308C236.186 185.993 236.491 185.747 236.892 185.569C237.293 185.392 237.778 185.287 238.348 185.255L241.055 185.091V186.041L238.492 186.205C237.931 186.237 237.521 186.353 237.261 186.554C237.006 186.754 236.878 187.037 236.878 187.401V187.415C236.878 187.789 237.02 188.08 237.302 188.29C237.585 188.495 237.94 188.598 238.368 188.598C238.774 188.598 239.134 188.518 239.449 188.358C239.763 188.194 240.009 187.973 240.187 187.695C240.369 187.417 240.46 187.103 240.46 186.752V184.455C240.46 183.999 240.321 183.653 240.043 183.416C239.77 183.174 239.357 183.054 238.806 183.054C238.364 183.054 238.002 183.133 237.719 183.293C237.437 183.448 237.247 183.669 237.152 183.956L237.145 183.977H235.955L235.962 183.936C236.026 183.548 236.186 183.211 236.441 182.924C236.701 182.632 237.035 182.407 237.446 182.247C237.856 182.083 238.323 182.001 238.847 182.001C239.449 182.001 239.957 182.099 240.371 182.295C240.791 182.491 241.107 182.773 241.322 183.143C241.54 183.507 241.65 183.945 241.65 184.455V189.5H240.46V188.413H240.351C240.196 188.673 240.007 188.894 239.784 189.076C239.565 189.258 239.316 189.397 239.038 189.493C238.76 189.584 238.455 189.63 238.122 189.63ZM246.162 189.555C245.405 189.555 244.856 189.402 244.514 189.097C244.177 188.791 244.008 188.288 244.008 187.586V183.115H242.846V182.131H244.008V180.224H245.239V182.131H246.852V183.115H245.239V187.285C245.239 187.718 245.321 188.03 245.485 188.222C245.649 188.409 245.922 188.502 246.305 188.502C246.41 188.502 246.499 188.5 246.572 188.495C246.649 188.491 246.743 188.484 246.852 188.475V189.486C246.738 189.505 246.624 189.521 246.51 189.534C246.396 189.548 246.28 189.555 246.162 189.555ZM248.377 189.5V182.131H249.566V189.5H248.377ZM248.978 180.709C248.755 180.709 248.561 180.629 248.397 180.47C248.238 180.306 248.158 180.112 248.158 179.889C248.158 179.661 248.238 179.467 248.397 179.308C248.561 179.148 248.755 179.068 248.978 179.068C249.206 179.068 249.4 179.148 249.559 179.308C249.719 179.467 249.799 179.661 249.799 179.889C249.799 180.112 249.719 180.306 249.559 180.47C249.4 180.629 249.206 180.709 248.978 180.709ZM254.557 189.63C253.86 189.63 253.256 189.477 252.745 189.172C252.239 188.862 251.847 188.422 251.569 187.853C251.296 187.283 251.159 186.606 251.159 185.822V185.809C251.159 185.02 251.296 184.341 251.569 183.771C251.847 183.202 252.239 182.764 252.745 182.459C253.256 182.154 253.86 182.001 254.557 182.001C255.259 182.001 255.862 182.154 256.368 182.459C256.874 182.764 257.264 183.202 257.537 183.771C257.815 184.341 257.954 185.02 257.954 185.809V185.822C257.954 186.606 257.815 187.283 257.537 187.853C257.264 188.422 256.874 188.862 256.368 189.172C255.862 189.477 255.259 189.63 254.557 189.63ZM254.557 188.577C255.022 188.577 255.416 188.468 255.739 188.249C256.063 188.03 256.309 187.716 256.478 187.306C256.651 186.896 256.737 186.401 256.737 185.822V185.809C256.737 185.225 256.651 184.729 256.478 184.318C256.309 183.908 256.063 183.596 255.739 183.382C255.416 183.163 255.022 183.054 254.557 183.054C254.092 183.054 253.698 183.163 253.374 183.382C253.051 183.596 252.802 183.908 252.629 184.318C252.46 184.729 252.376 185.225 252.376 185.809V185.822C252.376 186.401 252.46 186.896 252.629 187.306C252.802 187.716 253.051 188.03 253.374 188.249C253.698 188.468 254.092 188.577 254.557 188.577ZM259.52 189.5V182.131H260.709V183.238H260.819C261.006 182.846 261.275 182.543 261.625 182.329C261.976 182.11 262.423 182.001 262.965 182.001C263.795 182.001 264.43 182.238 264.872 182.712C265.319 183.181 265.542 183.854 265.542 184.729V189.5H264.353V185.016C264.353 184.35 264.212 183.858 263.929 183.539C263.651 183.215 263.218 183.054 262.63 183.054C262.238 183.054 261.899 183.138 261.612 183.307C261.325 183.475 261.101 183.715 260.942 184.024C260.787 184.334 260.709 184.706 260.709 185.139V189.5H259.52Z" fill="#A4A7AE"/>
<path d="M28 257.5H52C58.3513 257.5 63.5 262.649 63.5 269V293C63.5 299.351 58.3513 304.5 52 304.5H28C21.6487 304.5 16.5 299.351 16.5 293V269C16.5 262.649 21.6487 257.5 28 257.5Z" stroke="#181D27"/>
<path d="M36 283C36 283 37.5 285 40 285C42.5 285 44 283 44 283M43 278H43.01M37 278H37.01M50 281C50 286.523 45.5228 291 40 291C34.4772 291 30 286.523 30 281C30 275.477 34.4772 271 40 271C45.5228 271 50 275.477 50 281ZM43.5 278C43.5 278.276 43.2761 278.5 43 278.5C42.7239 278.5 42.5 278.276 42.5 278C42.5 277.724 42.7239 277.5 43 277.5C43.2761 277.5 43.5 277.724 43.5 278ZM37.5 278C37.5 278.276 37.2761 278.5 37 278.5C36.7239 278.5 36.5 278.276 36.5 278C36.5 277.724 36.7239 277.5 37 277.5C37.2761 277.5 37.5 277.724 37.5 278Z" stroke="#FDFDFD" stroke-width="2" stroke-linecap="round" stroke-linejoin="round"/>
<path d="M84 257.5H365C371.351 257.5 376.5 262.649 376.5 269V293C376.5 299.351 371.351 304.5 365 304.5H84C77.6487 304.5 72.5 299.351 72.5 293V269C72.5 262.649 77.6487 257.5 84 257.5Z" fill="#0A0D12"/>
<path d="M84 257.5H365C371.351 257.5 376.5 262.649 376.5 269V293C376.5 299.351 371.351 304.5 365 304.5H84C77.6487 304.5 72.5 299.351 72.5 293V269C72.5 262.649 77.6487 257.5 84 257.5Z" stroke="#181D27"/>
<path d="M88.4785 286L92.04 276.136H93.2773V277.865H92.8125L90.0918 286H88.4785ZM90.1943 283.334L90.625 282.104H95.1162L95.5469 283.334H90.1943ZM95.6426 286L92.9287 277.865V276.136H93.7012L97.2559 286H95.6426ZM101.098 286.123C100.478 286.123 99.9355 285.968 99.4707 285.658C99.0104 285.344 98.6527 284.899 98.3975 284.325C98.1468 283.751 98.0215 283.074 98.0215 282.295V282.281C98.0215 281.497 98.1468 280.818 98.3975 280.244C98.6481 279.67 99.0036 279.228 99.4639 278.918C99.9242 278.604 100.469 278.446 101.098 278.446C101.439 278.446 101.758 278.501 102.055 278.61C102.351 278.715 102.613 278.866 102.841 279.062C103.069 279.253 103.249 279.483 103.381 279.752H103.49V275.664H104.98V286H103.49V284.831H103.381C103.235 285.1 103.05 285.332 102.827 285.528C102.604 285.72 102.346 285.868 102.055 285.973C101.763 286.073 101.444 286.123 101.098 286.123ZM101.521 284.852C101.932 284.852 102.287 284.749 102.588 284.544C102.889 284.339 103.119 284.045 103.278 283.662C103.438 283.275 103.518 282.819 103.518 282.295V282.281C103.518 281.753 103.436 281.297 103.271 280.914C103.112 280.531 102.882 280.237 102.581 280.032C102.285 279.823 101.932 279.718 101.521 279.718C101.111 279.718 100.756 279.823 100.455 280.032C100.159 280.237 99.931 280.531 99.7715 280.914C99.6165 281.292 99.5391 281.748 99.5391 282.281V282.295C99.5391 282.824 99.6165 283.279 99.7715 283.662C99.931 284.045 100.159 284.339 100.455 284.544C100.756 284.749 101.111 284.852 101.521 284.852ZM109.889 286.123C109.269 286.123 108.727 285.968 108.262 285.658C107.801 285.344 107.444 284.899 107.188 284.325C106.938 283.751 106.812 283.074 106.812 282.295V282.281C106.812 281.497 106.938 280.818 107.188 280.244C107.439 279.67 107.795 279.228 108.255 278.918C108.715 278.604 109.26 278.446 109.889 278.446C110.23 278.446 110.549 278.501 110.846 278.61C111.142 278.715 111.404 278.866 111.632 279.062C111.86 279.253 112.04 279.483 112.172 279.752H112.281V275.664H113.771V286H112.281V284.831H112.172C112.026 285.1 111.841 285.332 111.618 285.528C111.395 285.72 111.137 285.868 110.846 285.973C110.554 286.073 110.235 286.123 109.889 286.123ZM110.312 284.852C110.723 284.852 111.078 284.749 111.379 284.544C111.68 284.339 111.91 284.045 112.069 283.662C112.229 283.275 112.309 282.819 112.309 282.295V282.281C112.309 281.753 112.227 281.297 112.062 280.914C111.903 280.531 111.673 280.237 111.372 280.032C111.076 279.823 110.723 279.718 110.312 279.718C109.902 279.718 109.547 279.823 109.246 280.032C108.95 280.237 108.722 280.531 108.562 280.914C108.408 281.292 108.33 281.748 108.33 282.281V282.295C108.33 282.824 108.408 283.279 108.562 283.662C108.722 284.045 108.95 284.339 109.246 284.544C109.547 284.749 109.902 284.852 110.312 284.852ZM124.005 286.239C123.093 286.239 122.303 286.03 121.633 285.61C120.967 285.191 120.455 284.596 120.095 283.826C119.735 283.056 119.555 282.14 119.555 281.078V281.064C119.555 279.998 119.735 279.08 120.095 278.31C120.455 277.539 120.967 276.945 121.633 276.525C122.298 276.106 123.089 275.896 124.005 275.896C124.729 275.896 125.383 276.04 125.967 276.327C126.555 276.61 127.035 277.002 127.409 277.503C127.787 278.004 128.018 278.581 128.1 279.232V279.273H126.575L126.568 279.246C126.477 278.84 126.311 278.49 126.069 278.193C125.828 277.897 125.532 277.667 125.181 277.503C124.83 277.339 124.438 277.257 124.005 277.257C123.417 277.257 122.907 277.412 122.474 277.722C122.045 278.032 121.713 278.471 121.476 279.041C121.243 279.606 121.127 280.281 121.127 281.064V281.078C121.127 281.853 121.243 282.525 121.476 283.095C121.713 283.664 122.045 284.104 122.474 284.414C122.907 284.724 123.419 284.879 124.012 284.879C124.445 284.879 124.837 284.806 125.188 284.66C125.543 284.514 125.839 284.307 126.076 284.038C126.313 283.765 126.475 283.443 126.562 283.074L126.575 283.047H128.106L128.1 283.081C128.004 283.715 127.771 284.268 127.402 284.742C127.033 285.216 126.559 285.585 125.98 285.85C125.402 286.109 124.743 286.239 124.005 286.239ZM133.09 286.144C132.365 286.144 131.739 285.989 131.21 285.679C130.686 285.369 130.283 284.927 130 284.353C129.717 283.774 129.576 283.088 129.576 282.295V282.281C129.576 281.484 129.717 280.798 130 280.224C130.287 279.649 130.693 279.207 131.217 278.897C131.745 278.588 132.37 278.433 133.09 278.433C133.814 278.433 134.439 278.588 134.963 278.897C135.487 279.203 135.89 279.645 136.173 280.224C136.46 280.798 136.604 281.484 136.604 282.281V282.295C136.604 283.088 136.46 283.774 136.173 284.353C135.89 284.927 135.487 285.369 134.963 285.679C134.443 285.989 133.819 286.144 133.09 286.144ZM133.09 284.899C133.514 284.899 133.874 284.797 134.17 284.592C134.466 284.382 134.692 284.084 134.847 283.696C135.002 283.309 135.079 282.842 135.079 282.295V282.281C135.079 281.73 135.002 281.26 134.847 280.873C134.692 280.486 134.466 280.189 134.17 279.984C133.874 279.775 133.514 279.67 133.09 279.67C132.666 279.67 132.306 279.775 132.01 279.984C131.714 280.189 131.486 280.486 131.326 280.873C131.171 281.26 131.094 281.73 131.094 282.281V282.295C131.094 282.842 131.171 283.309 131.326 283.696C131.486 284.084 131.714 284.382 132.01 284.592C132.306 284.797 132.666 284.899 133.09 284.899ZM138.367 286V278.576H139.851V279.718H139.967C140.131 279.308 140.386 278.991 140.732 278.768C141.083 278.544 141.503 278.433 141.99 278.433C142.327 278.433 142.631 278.487 142.899 278.597C143.168 278.706 143.398 278.861 143.59 279.062C143.786 279.257 143.938 279.49 144.048 279.759H144.164C144.287 279.49 144.46 279.257 144.684 279.062C144.907 278.861 145.167 278.706 145.463 278.597C145.764 278.487 146.083 278.433 146.42 278.433C146.921 278.433 147.35 278.531 147.705 278.727C148.061 278.918 148.332 279.196 148.519 279.561C148.705 279.925 148.799 280.365 148.799 280.88V286H147.315V281.235C147.315 280.894 147.263 280.611 147.158 280.388C147.053 280.16 146.894 279.989 146.68 279.875C146.47 279.761 146.206 279.704 145.887 279.704C145.572 279.704 145.297 279.777 145.06 279.923C144.827 280.064 144.645 280.256 144.513 280.497C144.385 280.734 144.321 281.003 144.321 281.304V286H142.838V281.085C142.838 280.802 142.779 280.559 142.66 280.354C142.546 280.144 142.382 279.984 142.168 279.875C141.954 279.761 141.701 279.704 141.409 279.704C141.113 279.704 140.846 279.782 140.609 279.937C140.377 280.091 140.192 280.301 140.056 280.565C139.919 280.825 139.851 281.117 139.851 281.44V286H138.367ZM150.877 286V278.576H152.36V279.718H152.477C152.641 279.308 152.896 278.991 153.242 278.768C153.593 278.544 154.012 278.433 154.5 278.433C154.837 278.433 155.14 278.487 155.409 278.597C155.678 278.706 155.908 278.861 156.1 279.062C156.296 279.257 156.448 279.49 156.558 279.759H156.674C156.797 279.49 156.97 279.257 157.193 279.062C157.417 278.861 157.676 278.706 157.973 278.597C158.273 278.487 158.592 278.433 158.93 278.433C159.431 278.433 159.859 278.531 160.215 278.727C160.57 278.918 160.841 279.196 161.028 279.561C161.215 279.925 161.309 280.365 161.309 280.88V286H159.825V281.235C159.825 280.894 159.773 280.611 159.668 280.388C159.563 280.16 159.404 279.989 159.189 279.875C158.98 279.761 158.715 279.704 158.396 279.704C158.082 279.704 157.806 279.777 157.569 279.923C157.337 280.064 157.155 280.256 157.022 280.497C156.895 280.734 156.831 281.003 156.831 281.304V286H155.348V281.085C155.348 280.802 155.288 280.559 155.17 280.354C155.056 280.144 154.892 279.984 154.678 279.875C154.464 279.761 154.211 279.704 153.919 279.704C153.623 279.704 153.356 279.782 153.119 279.937C152.887 280.091 152.702 280.301 152.565 280.565C152.429 280.825 152.36 281.117 152.36 281.44V286H150.877ZM166.504 286.144C165.779 286.144 165.157 285.989 164.638 285.679C164.118 285.364 163.717 284.92 163.435 284.346C163.157 283.771 163.018 283.092 163.018 282.309V282.302C163.018 281.527 163.157 280.85 163.435 280.271C163.717 279.693 164.114 279.242 164.624 278.918C165.139 278.594 165.741 278.433 166.429 278.433C167.121 278.433 167.716 278.588 168.213 278.897C168.714 279.207 169.099 279.643 169.368 280.203C169.637 280.759 169.771 281.411 169.771 282.158V282.678H163.77V281.618H169.033L168.322 282.603V282.008C168.322 281.479 168.24 281.042 168.076 280.695C167.917 280.344 167.696 280.082 167.413 279.909C167.131 279.736 166.805 279.649 166.436 279.649C166.066 279.649 165.736 279.741 165.444 279.923C165.157 280.101 164.929 280.365 164.761 280.716C164.597 281.067 164.515 281.497 164.515 282.008V282.603C164.515 283.09 164.597 283.507 164.761 283.854C164.925 284.2 165.157 284.464 165.458 284.646C165.763 284.829 166.123 284.92 166.538 284.92C166.857 284.92 167.131 284.877 167.358 284.79C167.591 284.699 167.78 284.587 167.926 284.455C168.076 284.323 168.179 284.193 168.233 284.065L168.261 284.011H169.696L169.683 284.072C169.619 284.318 169.507 284.564 169.348 284.811C169.188 285.052 168.976 285.273 168.712 285.474C168.452 285.674 168.138 285.836 167.769 285.959C167.404 286.082 166.982 286.144 166.504 286.144ZM171.535 286V278.576H173.019V279.697H173.135C173.317 279.301 173.586 278.991 173.941 278.768C174.297 278.544 174.746 278.433 175.288 278.433C176.122 278.433 176.76 278.672 177.202 279.15C177.644 279.629 177.865 280.31 177.865 281.194V286H176.375V281.543C176.375 280.923 176.245 280.463 175.985 280.162C175.73 279.857 175.329 279.704 174.782 279.704C174.422 279.704 174.11 279.784 173.846 279.943C173.581 280.098 173.376 280.322 173.23 280.613C173.089 280.9 173.019 281.244 173.019 281.646V286H171.535ZM182.732 286.048C181.921 286.048 181.333 285.893 180.969 285.583C180.609 285.269 180.429 284.756 180.429 284.045V279.745H179.267V278.576H180.429V276.703H181.946V278.576H183.539V279.745H181.946V283.683C181.946 284.084 182.026 284.373 182.186 284.551C182.345 284.724 182.609 284.811 182.979 284.811C183.088 284.811 183.181 284.808 183.259 284.804C183.341 284.799 183.434 284.792 183.539 284.783V285.973C183.421 285.991 183.293 286.007 183.156 286.021C183.02 286.039 182.878 286.048 182.732 286.048Z" fill="#535862"/>
<path d="M332.066 282.89V281.276H334.596C335.188 281.276 335.649 281.126 335.977 280.825C336.309 280.52 336.476 280.087 336.476 279.526V279.513C336.476 278.952 336.309 278.521 335.977 278.221C335.649 277.92 335.188 277.77 334.596 277.77H332.066V276.136H335.102C335.794 276.136 336.4 276.277 336.92 276.56C337.44 276.838 337.843 277.229 338.13 277.735C338.422 278.241 338.567 278.831 338.567 279.506V279.52C338.567 280.199 338.422 280.791 338.13 281.297C337.843 281.803 337.44 282.195 336.92 282.473C336.4 282.751 335.794 282.89 335.102 282.89H332.066ZM331.034 286V276.136H333.099V286H331.034ZM343.267 286.157C342.497 286.157 341.834 286.002 341.278 285.692C340.722 285.378 340.296 284.929 340 284.346C339.704 283.758 339.555 283.056 339.555 282.24V282.227C339.555 281.415 339.706 280.718 340.007 280.135C340.307 279.551 340.733 279.103 341.285 278.788C341.841 278.469 342.502 278.31 343.267 278.31C344.033 278.31 344.691 278.467 345.243 278.781C345.799 279.096 346.227 279.547 346.528 280.135C346.829 280.718 346.979 281.415 346.979 282.227V282.24C346.979 283.056 346.831 283.758 346.535 284.346C346.239 284.929 345.813 285.378 345.257 285.692C344.705 286.002 344.042 286.157 343.267 286.157ZM343.267 284.592C343.623 284.592 343.924 284.498 344.17 284.312C344.416 284.125 344.605 283.856 344.737 283.505C344.869 283.154 344.935 282.732 344.935 282.24V282.227C344.935 281.734 344.869 281.315 344.737 280.969C344.605 280.618 344.413 280.349 344.163 280.162C343.917 279.971 343.618 279.875 343.267 279.875C342.916 279.875 342.616 279.971 342.365 280.162C342.119 280.349 341.93 280.618 341.798 280.969C341.665 281.315 341.599 281.734 341.599 282.227V282.24C341.599 282.737 341.663 283.161 341.791 283.512C341.923 283.863 342.112 284.132 342.358 284.318C342.609 284.501 342.912 284.592 343.267 284.592ZM351.46 286.157C350.777 286.157 350.193 286.064 349.71 285.877C349.232 285.686 348.856 285.424 348.582 285.091C348.314 284.758 348.156 284.378 348.111 283.949L348.104 283.922H350.066L350.079 283.949C350.161 284.182 350.316 284.373 350.544 284.523C350.777 284.674 351.089 284.749 351.481 284.749C351.736 284.749 351.959 284.715 352.151 284.646C352.342 284.574 352.493 284.476 352.602 284.353C352.711 284.229 352.766 284.086 352.766 283.922V283.908C352.766 283.708 352.684 283.541 352.52 283.409C352.356 283.277 352.082 283.168 351.7 283.081L350.442 282.814C349.963 282.714 349.564 282.568 349.245 282.377C348.926 282.181 348.687 281.942 348.528 281.659C348.373 281.377 348.295 281.049 348.295 280.675V280.668C348.295 280.194 348.425 279.782 348.685 279.431C348.949 279.075 349.316 278.799 349.786 278.604C350.259 278.408 350.809 278.31 351.433 278.31C352.089 278.31 352.647 278.41 353.108 278.61C353.568 278.806 353.921 279.071 354.167 279.403C354.418 279.731 354.557 280.098 354.584 280.504V280.531H352.732L352.725 280.497C352.67 280.292 352.534 280.112 352.315 279.957C352.096 279.798 351.8 279.718 351.426 279.718C351.198 279.718 350.995 279.752 350.818 279.82C350.64 279.889 350.499 279.984 350.394 280.107C350.294 280.23 350.244 280.376 350.244 280.545V280.552C350.244 280.684 350.278 280.8 350.346 280.9C350.414 281.001 350.526 281.087 350.681 281.16C350.836 281.233 351.043 281.299 351.303 281.358L352.554 281.625C353.306 281.789 353.862 282.035 354.222 282.363C354.582 282.691 354.762 283.133 354.762 283.689V283.696C354.762 284.193 354.621 284.626 354.338 284.995C354.056 285.364 353.666 285.651 353.169 285.856C352.673 286.057 352.103 286.157 351.46 286.157ZM359.339 286.027C358.427 286.027 357.771 285.868 357.37 285.549C356.969 285.225 356.769 284.699 356.769 283.97V279.978H355.606V278.474H356.769V276.676H358.785V278.474H360.337V279.978H358.785V283.512C358.785 283.849 358.86 284.097 359.011 284.257C359.166 284.412 359.412 284.489 359.749 284.489C359.877 284.489 359.981 284.487 360.063 284.482C360.15 284.473 360.241 284.464 360.337 284.455V285.938C360.214 285.961 360.066 285.982 359.893 286C359.719 286.018 359.535 286.027 359.339 286.027Z" fill="#535862"/>
</svg>
