<svg width="393" height="852" viewBox="0 0 393 852" fill="none" xmlns="http://www.w3.org/2000/svg">
<rect width="393" height="852" fill="black"/>
<mask id="path-1-inside-1_41447_8767" fill="white">
<path d="M0 0H393V64H0V0Z"/>
</mask>
<path d="M0 0H393V64H0V0Z" fill="black"/>
<path d="M393 64V63H0V64V65H393V64Z" fill="#181D27" mask="url(#path-1-inside-1_41447_8767)"/>
<path d="M36 12.5H317C327.77 12.5 336.5 21.2304 336.5 32C336.5 42.7696 327.77 51.5 317 51.5H36C25.2304 51.5 16.5 42.7696 16.5 32C16.5 21.2304 25.2304 12.5 36 12.5Z" fill="#0A0D12"/>
<path d="M36 12.5H317C327.77 12.5 336.5 21.2304 336.5 32C336.5 42.7696 327.77 51.5 317 51.5H36C25.2304 51.5 16.5 42.7696 16.5 32C16.5 21.2304 25.2304 12.5 36 12.5Z" stroke="#181D27"/>
<path d="M45.5 39.5L42.1667 36.1667M43.8333 31.1667C43.8333 32.9348 43.131 34.6305 41.8807 35.8807C40.6305 37.131 38.9348 37.8333 37.1667 37.8333C35.3986 37.8333 33.7029 37.131 32.4526 35.8807C31.2024 34.6305 30.5 32.9348 30.5 31.1667C30.5 29.3986 31.2024 27.7029 32.4526 26.4526C33.7029 25.2024 35.3986 24.5 37.1667 24.5C38.9348 24.5 40.6305 25.2024 41.8807 26.4526C43.131 27.7029 43.8333 29.3986 43.8333 31.1667Z" stroke="#717680" stroke-width="1.25" stroke-miterlimit="10" stroke-linecap="round" stroke-linejoin="round"/>
<path d="M57.3701 37.2324C56.9417 37.2324 56.5612 37.1709 56.2285 37.0479C55.8958 36.9248 55.6133 36.7516 55.3809 36.5283C55.1484 36.305 54.9661 36.043 54.834 35.7422C54.7018 35.4414 54.6221 35.1133 54.5947 34.7578L54.5879 34.6621H55.8184L55.8252 34.7305C55.8525 34.9766 55.9255 35.2044 56.0439 35.4141C56.1624 35.6191 56.3311 35.7855 56.5498 35.9131C56.7686 36.0361 57.0397 36.0977 57.3633 36.0977C57.9102 36.0977 58.3271 35.9404 58.6143 35.626C58.9014 35.307 59.0449 34.8467 59.0449 34.2451V27.1357H60.2754V34.2588C60.2754 34.8786 60.1592 35.4118 59.9268 35.8584C59.6989 36.3005 59.3685 36.64 58.9355 36.877C58.5026 37.1139 57.9808 37.2324 57.3701 37.2324ZM65.3889 37.1299C64.6917 37.1299 64.0878 36.9772 63.5774 36.6719C63.0716 36.362 62.6796 35.9222 62.4016 35.3525C62.1282 34.7829 61.9915 34.1061 61.9915 33.3223V33.3086C61.9915 32.5202 62.1282 31.8411 62.4016 31.2715C62.6796 30.7018 63.0716 30.2643 63.5774 29.959C64.0878 29.6536 64.6917 29.501 65.3889 29.501C66.0908 29.501 66.6946 29.6536 67.2005 29.959C67.7063 30.2643 68.096 30.7018 68.3694 31.2715C68.6474 31.8411 68.7864 32.5202 68.7864 33.3086V33.3223C68.7864 34.1061 68.6474 34.7829 68.3694 35.3525C68.096 35.9222 67.7063 36.362 67.2005 36.6719C66.6946 36.9772 66.0908 37.1299 65.3889 37.1299ZM65.3889 36.0771C65.8538 36.0771 66.248 35.9678 66.5716 35.749C66.8951 35.5303 67.1412 35.2158 67.3098 34.8057C67.483 34.3955 67.5696 33.901 67.5696 33.3223V33.3086C67.5696 32.7253 67.483 32.2285 67.3098 31.8184C67.1412 31.4082 66.8951 31.096 66.5716 30.8818C66.248 30.6631 65.8538 30.5537 65.3889 30.5537C64.9241 30.5537 64.5299 30.6631 64.2063 30.8818C63.8828 31.096 63.6344 31.4082 63.4612 31.8184C63.2926 32.2285 63.2083 32.7253 63.2083 33.3086V33.3223C63.2083 33.901 63.2926 34.3955 63.4612 34.8057C63.6344 35.2158 63.8828 35.5303 64.2063 35.749C64.5299 35.9678 64.9241 36.0771 65.3889 36.0771ZM70.4205 37V26.7051H71.6099V30.7383H71.7193C71.9061 30.3464 72.175 30.0433 72.5259 29.8291C72.8768 29.6104 73.3235 29.501 73.8658 29.501C74.4172 29.501 74.8843 29.6081 75.2671 29.8223C75.65 30.0319 75.9416 30.3395 76.1421 30.7451C76.3427 31.1507 76.4429 31.6452 76.4429 32.2285V37H75.2535V32.5156C75.2535 31.8503 75.1122 31.3581 74.8296 31.0391C74.5517 30.7155 74.1187 30.5537 73.5308 30.5537C73.1389 30.5537 72.7994 30.638 72.5123 30.8066C72.2252 30.9753 72.0018 31.2145 71.8423 31.5244C71.6874 31.8343 71.6099 32.2057 71.6099 32.6387V37H70.4205ZM78.3162 37V29.6309H79.5057V30.7383H79.6151C79.8019 30.3464 80.0708 30.0433 80.4217 29.8291C80.7726 29.6104 81.2192 29.501 81.7616 29.501C82.591 29.501 83.2267 29.738 83.6688 30.2119C84.1154 30.6813 84.3387 31.3535 84.3387 32.2285V37H83.1493V32.5156C83.1493 31.8503 83.008 31.3581 82.7254 31.0391C82.4474 30.7155 82.0145 30.5537 81.4266 30.5537C81.0347 30.5537 80.6952 30.638 80.408 30.8066C80.1209 30.9753 79.8976 31.2145 79.7381 31.5244C79.5832 31.8343 79.5057 32.2057 79.5057 32.6387V37H78.3162ZM90.0199 37V27.1357H93.4037C94.379 27.1357 95.213 27.3317 95.9057 27.7236C96.6029 28.111 97.1361 28.6715 97.5053 29.4053C97.8744 30.139 98.059 31.0231 98.059 32.0576V32.0713C98.059 33.1058 97.8744 33.9922 97.5053 34.7305C97.1361 35.4642 96.6052 36.027 95.9125 36.4189C95.2198 36.8063 94.3835 37 93.4037 37H90.0199ZM91.2504 35.8926H93.3217C94.0554 35.8926 94.682 35.7422 95.2016 35.4414C95.7211 35.1406 96.1176 34.7054 96.391 34.1357C96.6645 33.5661 96.8012 32.8825 96.8012 32.085V32.0713C96.8012 31.2692 96.6622 30.5833 96.3842 30.0137C96.1107 29.4395 95.7143 29.002 95.1947 28.7012C94.6752 28.3958 94.0508 28.2432 93.3217 28.2432H91.2504V35.8926ZM102.79 37.1299C102.092 37.1299 101.489 36.9772 100.978 36.6719C100.472 36.362 100.08 35.9222 99.8024 35.3525C99.529 34.7829 99.3923 34.1061 99.3923 33.3223V33.3086C99.3923 32.5202 99.529 31.8411 99.8024 31.2715C100.08 30.7018 100.472 30.2643 100.978 29.959C101.489 29.6536 102.092 29.501 102.79 29.501C103.492 29.501 104.095 29.6536 104.601 29.959C105.107 30.2643 105.497 30.7018 105.77 31.2715C106.048 31.8411 106.187 32.5202 106.187 33.3086V33.3223C106.187 34.1061 106.048 34.7829 105.77 35.3525C105.497 35.9222 105.107 36.362 104.601 36.6719C104.095 36.9772 103.492 37.1299 102.79 37.1299ZM102.79 36.0771C103.255 36.0771 103.649 35.9678 103.972 35.749C104.296 35.5303 104.542 35.2158 104.711 34.8057C104.884 34.3955 104.97 33.901 104.97 33.3223V33.3086C104.97 32.7253 104.884 32.2285 104.711 31.8184C104.542 31.4082 104.296 31.096 103.972 30.8818C103.649 30.6631 103.255 30.5537 102.79 30.5537C102.325 30.5537 101.931 30.6631 101.607 30.8818C101.284 31.096 101.035 31.4082 100.862 31.8184C100.693 32.2285 100.609 32.7253 100.609 33.3086V33.3223C100.609 33.901 100.693 34.3955 100.862 34.8057C101.035 35.2158 101.284 35.5303 101.607 35.749C101.931 35.9678 102.325 36.0771 102.79 36.0771ZM110.761 37.1299C110.059 37.1299 109.455 36.9749 108.949 36.665C108.448 36.3551 108.061 35.9176 107.787 35.3525C107.518 34.7829 107.384 34.113 107.384 33.3428V33.3359C107.384 32.5749 107.518 31.9072 107.787 31.333C108.061 30.7588 108.446 30.3099 108.942 29.9863C109.439 29.6628 110.02 29.501 110.686 29.501C111.355 29.501 111.93 29.6559 112.408 29.9658C112.891 30.2757 113.26 30.7087 113.516 31.2646C113.775 31.8161 113.905 32.4587 113.905 33.1924V33.6572H107.999V32.707H113.297L112.709 33.5752V33.1035C112.709 32.5247 112.622 32.0485 112.449 31.6748C112.276 31.3011 112.037 31.0231 111.731 30.8408C111.426 30.654 111.075 30.5605 110.679 30.5605C110.282 30.5605 109.927 30.6585 109.612 30.8545C109.302 31.0459 109.056 31.3307 108.874 31.709C108.692 32.0872 108.601 32.5521 108.601 33.1035V33.5752C108.601 34.0993 108.689 34.5482 108.867 34.9219C109.045 35.291 109.298 35.5758 109.626 35.7764C109.954 35.9723 110.341 36.0703 110.788 36.0703C111.121 36.0703 111.41 36.0247 111.656 35.9336C111.902 35.8424 112.105 35.7262 112.265 35.585C112.424 35.4437 112.536 35.3001 112.6 35.1543L112.627 35.0928H113.816L113.803 35.1475C113.739 35.3981 113.625 35.6419 113.461 35.8789C113.301 36.1113 113.094 36.3232 112.839 36.5146C112.584 36.7015 112.281 36.8519 111.93 36.9658C111.583 37.0752 111.194 37.1299 110.761 37.1299Z" fill="#FDFDFD"/>
<g clip-path="url(#clip0_41447_8767)">
<mask id="mask0_41447_8767" style="mask-type:luminance" maskUnits="userSpaceOnUse" x="309" y="24" width="16" height="16">
<path d="M317 38.6663C320.682 38.6663 323.667 35.6817 323.667 31.9997C323.667 28.3177 320.682 25.333 317 25.333C313.318 25.333 310.333 28.3177 310.333 31.9997C310.333 35.6817 313.318 38.6663 317 38.6663Z" fill="white" stroke="white" stroke-width="1.33333" stroke-linejoin="round"/>
<path d="M318.886 30.1143L315.115 33.8856M315.115 30.1143L318.886 33.8856" stroke="black" stroke-width="1.33333" stroke-linecap="round" stroke-linejoin="round"/>
</mask>
<g mask="url(#mask0_41447_8767)">
<path d="M309 24H325V40H309V24Z" fill="#535862"/>
</g>
</g>
<path d="M371 26L359 38M359 26L371 38" stroke="#FDFDFD" stroke-width="2" stroke-linecap="round" stroke-linejoin="round"/>
<path d="M133.283 415.5V404.227H135.252L141.056 412.242L139.408 411.406H140.58V404.227H142.838V415.5H140.884L135.064 407.453L136.72 408.289H135.541V415.5H133.283ZM148.853 415.68C147.973 415.68 147.215 415.503 146.58 415.148C145.945 414.789 145.458 414.276 145.119 413.609C144.781 412.938 144.611 412.135 144.611 411.203V411.188C144.611 410.26 144.783 409.464 145.127 408.797C145.471 408.13 145.958 407.617 146.588 407.258C147.223 406.893 147.978 406.711 148.853 406.711C149.728 406.711 150.481 406.891 151.111 407.25C151.747 407.609 152.236 408.125 152.58 408.797C152.924 409.464 153.096 410.26 153.096 411.188V411.203C153.096 412.135 152.926 412.938 152.588 413.609C152.249 414.276 151.762 414.789 151.127 415.148C150.497 415.503 149.739 415.68 148.853 415.68ZM148.853 413.891C149.26 413.891 149.603 413.784 149.885 413.57C150.166 413.357 150.382 413.049 150.533 412.648C150.684 412.247 150.76 411.766 150.76 411.203V411.188C150.76 410.625 150.684 410.146 150.533 409.75C150.382 409.349 150.163 409.042 149.877 408.828C149.596 408.609 149.254 408.5 148.853 408.5C148.452 408.5 148.109 408.609 147.822 408.828C147.541 409.042 147.325 409.349 147.174 409.75C147.023 410.146 146.947 410.625 146.947 411.188V411.203C146.947 411.771 147.02 412.255 147.166 412.656C147.317 413.057 147.533 413.365 147.814 413.578C148.101 413.786 148.447 413.891 148.853 413.891ZM158.44 415.5V406.898H160.721V408.234H160.862C161.003 407.766 161.26 407.404 161.635 407.148C162.01 406.888 162.476 406.758 163.034 406.758C163.19 406.758 163.341 406.768 163.487 406.789C163.638 406.81 163.771 406.836 163.885 406.867V408.859C163.713 408.818 163.539 408.786 163.362 408.766C163.19 408.74 163.016 408.727 162.838 408.727C162.406 408.727 162.031 408.807 161.713 408.969C161.396 409.125 161.151 409.349 160.979 409.641C160.807 409.932 160.721 410.281 160.721 410.688V415.5H158.44ZM168.683 415.68C167.813 415.68 167.063 415.5 166.433 415.141C165.808 414.776 165.326 414.26 164.987 413.594C164.649 412.927 164.479 412.133 164.479 411.211V411.203C164.479 410.292 164.646 409.5 164.979 408.828C165.318 408.156 165.794 407.635 166.409 407.266C167.029 406.896 167.755 406.711 168.589 406.711C169.427 406.711 170.151 406.891 170.761 407.25C171.37 407.609 171.839 408.112 172.167 408.758C172.495 409.404 172.659 410.161 172.659 411.031V411.742H165.62V410.312H171.565L170.495 411.664V410.75C170.495 410.234 170.414 409.805 170.253 409.461C170.097 409.117 169.878 408.859 169.597 408.688C169.321 408.51 168.998 408.422 168.628 408.422C168.263 408.422 167.938 408.513 167.651 408.695C167.37 408.872 167.146 409.135 166.979 409.484C166.818 409.828 166.737 410.25 166.737 410.75V411.672C166.737 412.156 166.818 412.57 166.979 412.914C167.141 413.258 167.37 413.521 167.667 413.703C167.964 413.885 168.318 413.977 168.729 413.977C169.063 413.977 169.347 413.927 169.581 413.828C169.815 413.729 170.003 413.615 170.143 413.484C170.289 413.349 170.388 413.227 170.44 413.117L170.464 413.07H172.589L172.573 413.148C172.505 413.419 172.383 413.703 172.206 414C172.029 414.292 171.784 414.565 171.472 414.82C171.164 415.076 170.779 415.284 170.315 415.445C169.857 415.602 169.313 415.68 168.683 415.68ZM177.628 415.68C176.847 415.68 176.18 415.573 175.628 415.359C175.081 415.141 174.652 414.841 174.339 414.461C174.032 414.081 173.852 413.646 173.8 413.156L173.792 413.125H176.034L176.05 413.156C176.144 413.422 176.321 413.641 176.581 413.812C176.847 413.984 177.204 414.07 177.652 414.07C177.943 414.07 178.198 414.031 178.417 413.953C178.636 413.87 178.808 413.758 178.933 413.617C179.058 413.477 179.12 413.312 179.12 413.125V413.109C179.12 412.88 179.027 412.69 178.839 412.539C178.652 412.388 178.339 412.263 177.902 412.164L176.464 411.859C175.917 411.745 175.461 411.578 175.097 411.359C174.732 411.135 174.459 410.862 174.277 410.539C174.099 410.216 174.011 409.841 174.011 409.414V409.406C174.011 408.865 174.159 408.393 174.456 407.992C174.758 407.586 175.178 407.271 175.714 407.047C176.256 406.823 176.883 406.711 177.597 406.711C178.347 406.711 178.985 406.826 179.511 407.055C180.037 407.279 180.441 407.581 180.722 407.961C181.008 408.336 181.167 408.755 181.198 409.219V409.25H179.081L179.073 409.211C179.011 408.977 178.855 408.771 178.605 408.594C178.355 408.411 178.016 408.32 177.589 408.32C177.329 408.32 177.097 408.359 176.894 408.438C176.691 408.516 176.529 408.625 176.409 408.766C176.295 408.906 176.238 409.073 176.238 409.266V409.273C176.238 409.424 176.277 409.557 176.355 409.672C176.433 409.786 176.56 409.885 176.738 409.969C176.915 410.052 177.152 410.128 177.448 410.195L178.878 410.5C179.738 410.688 180.373 410.969 180.784 411.344C181.196 411.719 181.402 412.224 181.402 412.859V412.867C181.402 413.435 181.24 413.93 180.917 414.352C180.594 414.773 180.149 415.102 179.581 415.336C179.014 415.565 178.363 415.68 177.628 415.68ZM185.793 415.68C185.152 415.68 184.613 415.555 184.175 415.305C183.743 415.055 183.418 414.69 183.199 414.211C182.98 413.727 182.871 413.143 182.871 412.461V406.898H185.152V411.938C185.152 412.547 185.272 413.008 185.511 413.32C185.756 413.633 186.149 413.789 186.691 413.789C186.972 413.789 187.22 413.745 187.433 413.656C187.652 413.562 187.834 413.432 187.98 413.266C188.126 413.099 188.235 412.898 188.308 412.664C188.386 412.424 188.425 412.159 188.425 411.867V406.898H190.707V415.5H188.425V414.172H188.285C188.154 414.484 187.972 414.755 187.738 414.984C187.503 415.208 187.222 415.38 186.894 415.5C186.566 415.62 186.199 415.68 185.793 415.68ZM192.754 415.5V403.609H195.035V415.5H192.754ZM200.645 415.531C199.603 415.531 198.853 415.349 198.395 414.984C197.936 414.615 197.707 414.013 197.707 413.18V408.617H196.379V406.898H197.707V404.844H200.012V406.898H201.785V408.617H200.012V412.656C200.012 413.042 200.098 413.326 200.27 413.508C200.447 413.685 200.728 413.773 201.113 413.773C201.259 413.773 201.379 413.771 201.473 413.766C201.572 413.755 201.676 413.745 201.785 413.734V415.43C201.645 415.456 201.475 415.479 201.278 415.5C201.08 415.521 200.869 415.531 200.645 415.531ZM206.708 415.68C205.926 415.68 205.26 415.573 204.708 415.359C204.161 415.141 203.731 414.841 203.418 414.461C203.111 414.081 202.931 413.646 202.879 413.156L202.872 413.125H205.114L205.129 413.156C205.223 413.422 205.4 413.641 205.661 413.812C205.926 413.984 206.283 414.07 206.731 414.07C207.023 414.07 207.278 414.031 207.497 413.953C207.715 413.87 207.887 413.758 208.012 413.617C208.137 413.477 208.2 413.312 208.2 413.125V413.109C208.2 412.88 208.106 412.69 207.918 412.539C207.731 412.388 207.418 412.263 206.981 412.164L205.543 411.859C204.997 411.745 204.541 411.578 204.176 411.359C203.812 411.135 203.538 410.862 203.356 410.539C203.179 410.216 203.09 409.841 203.09 409.414V409.406C203.09 408.865 203.239 408.393 203.536 407.992C203.838 407.586 204.257 407.271 204.793 407.047C205.335 406.823 205.963 406.711 206.676 406.711C207.426 406.711 208.064 406.826 208.59 407.055C209.116 407.279 209.52 407.581 209.801 407.961C210.088 408.336 210.247 408.755 210.278 409.219V409.25H208.161L208.153 409.211C208.09 408.977 207.934 408.771 207.684 408.594C207.434 408.411 207.096 408.32 206.668 408.32C206.408 408.32 206.176 408.359 205.973 408.438C205.77 408.516 205.609 408.625 205.489 408.766C205.374 408.906 205.317 409.073 205.317 409.266V409.273C205.317 409.424 205.356 409.557 205.434 409.672C205.512 409.786 205.64 409.885 205.817 409.969C205.994 410.052 206.231 410.128 206.528 410.195L207.958 410.5C208.817 410.688 209.452 410.969 209.864 411.344C210.275 411.719 210.481 412.224 210.481 412.859V412.867C210.481 413.435 210.319 413.93 209.997 414.352C209.674 414.773 209.228 415.102 208.661 415.336C208.093 415.565 207.442 415.68 206.708 415.68ZM216.497 415.5V408.617H215.107V406.898H216.497V406.094C216.497 405.521 216.599 405.044 216.802 404.664C217.005 404.284 217.323 404 217.755 403.812C218.193 403.62 218.758 403.523 219.45 403.523C219.685 403.523 219.896 403.531 220.083 403.547C220.276 403.562 220.456 403.583 220.622 403.609V405.133C220.549 405.117 220.453 405.107 220.333 405.102C220.219 405.091 220.088 405.086 219.943 405.086C219.5 405.086 219.187 405.188 219.005 405.391C218.823 405.589 218.732 405.875 218.732 406.25V406.898H220.552V408.617H218.778V415.5H216.497ZM225.568 415.68C224.688 415.68 223.93 415.503 223.294 415.148C222.659 414.789 222.172 414.276 221.833 413.609C221.495 412.938 221.326 412.135 221.326 411.203V411.188C221.326 410.26 221.498 409.464 221.841 408.797C222.185 408.13 222.672 407.617 223.302 407.258C223.938 406.893 224.693 406.711 225.568 406.711C226.443 406.711 227.195 406.891 227.826 407.25C228.461 407.609 228.951 408.125 229.294 408.797C229.638 409.464 229.81 410.26 229.81 411.188V411.203C229.81 412.135 229.641 412.938 229.302 413.609C228.964 414.276 228.477 414.789 227.841 415.148C227.211 415.503 226.453 415.68 225.568 415.68ZM225.568 413.891C225.974 413.891 226.318 413.784 226.599 413.57C226.88 413.357 227.096 413.049 227.248 412.648C227.399 412.247 227.474 411.766 227.474 411.203V411.188C227.474 410.625 227.399 410.146 227.248 409.75C227.096 409.349 226.878 409.042 226.591 408.828C226.31 408.609 225.969 408.5 225.568 408.5C225.167 408.5 224.823 408.609 224.537 408.828C224.255 409.042 224.039 409.349 223.888 409.75C223.737 410.146 223.662 410.625 223.662 411.188V411.203C223.662 411.771 223.734 412.255 223.88 412.656C224.031 413.057 224.248 413.365 224.529 413.578C224.815 413.786 225.162 413.891 225.568 413.891ZM234.193 415.68C233.552 415.68 233.013 415.555 232.576 415.305C232.144 415.055 231.818 414.69 231.599 414.211C231.381 413.727 231.271 413.143 231.271 412.461V406.898H233.552V411.938C233.552 412.547 233.672 413.008 233.912 413.32C234.157 413.633 234.55 413.789 235.092 413.789C235.373 413.789 235.62 413.745 235.834 413.656C236.052 413.562 236.235 413.432 236.381 413.266C236.526 413.099 236.636 412.898 236.709 412.664C236.787 412.424 236.826 412.159 236.826 411.867V406.898H239.107V415.5H236.826V414.172H236.685C236.555 414.484 236.373 414.755 236.138 414.984C235.904 415.208 235.623 415.38 235.295 415.5C234.967 415.62 234.599 415.68 234.193 415.68ZM241.076 415.5V406.898H243.357V408.227H243.498C243.696 407.758 244.003 407.388 244.42 407.117C244.837 406.846 245.352 406.711 245.967 406.711C246.925 406.711 247.654 406.992 248.154 407.555C248.66 408.112 248.912 408.906 248.912 409.938V415.5H246.631V410.453C246.631 409.844 246.503 409.383 246.248 409.07C245.993 408.758 245.594 408.602 245.053 408.602C244.704 408.602 244.402 408.682 244.147 408.844C243.897 409 243.701 409.221 243.561 409.508C243.425 409.794 243.357 410.133 243.357 410.523V415.5H241.076ZM253.873 415.633C253.16 415.633 252.54 415.456 252.014 415.102C251.493 414.742 251.09 414.232 250.803 413.57C250.522 412.909 250.381 412.12 250.381 411.203V411.188C250.381 410.266 250.519 409.474 250.795 408.812C251.077 408.151 251.478 407.643 251.998 407.289C252.519 406.935 253.144 406.758 253.873 406.758C254.264 406.758 254.626 406.82 254.959 406.945C255.298 407.065 255.595 407.237 255.85 407.461C256.105 407.685 256.303 407.956 256.444 408.273H256.584V403.609H258.866V415.5H256.584V414.164H256.444C256.298 414.471 256.1 414.734 255.85 414.953C255.605 415.172 255.316 415.341 254.983 415.461C254.649 415.576 254.28 415.633 253.873 415.633ZM254.647 413.742C255.053 413.742 255.402 413.641 255.694 413.438C255.985 413.234 256.209 412.943 256.366 412.562C256.527 412.182 256.608 411.732 256.608 411.211V411.195C256.608 410.664 256.527 410.211 256.366 409.836C256.209 409.456 255.983 409.164 255.686 408.961C255.394 408.753 255.048 408.648 254.647 408.648C254.251 408.648 253.905 408.753 253.608 408.961C253.316 409.164 253.092 409.456 252.936 409.836C252.78 410.211 252.702 410.661 252.702 411.188V411.203C252.702 411.729 252.78 412.182 252.936 412.562C253.092 412.943 253.316 413.234 253.608 413.438C253.899 413.641 254.246 413.742 254.647 413.742Z" fill="#FDFDFD"/>
<path d="M132.266 447.732C131.373 447.732 130.6 447.523 129.949 447.104C129.297 446.684 128.793 446.09 128.438 445.319C128.087 444.549 127.912 443.635 127.912 442.578V442.564C127.912 441.503 128.087 440.587 128.438 439.816C128.793 439.046 129.295 438.451 129.942 438.032C130.594 437.613 131.366 437.403 132.259 437.403C132.952 437.403 133.581 437.54 134.146 437.813C134.716 438.082 135.185 438.458 135.554 438.941C135.923 439.42 136.156 439.974 136.251 440.603L136.245 440.616H135.007L135 440.603C134.891 440.179 134.707 439.814 134.447 439.509C134.187 439.199 133.87 438.96 133.497 438.791C133.127 438.622 132.715 438.538 132.259 438.538C131.63 438.538 131.083 438.702 130.619 439.03C130.158 439.358 129.803 439.823 129.552 440.425C129.302 441.026 129.176 441.74 129.176 442.564V442.578C129.176 443.398 129.302 444.109 129.552 444.711C129.803 445.312 130.158 445.777 130.619 446.105C131.083 446.434 131.633 446.598 132.266 446.598C132.726 446.598 133.143 446.525 133.517 446.379C133.891 446.229 134.205 446.017 134.46 445.743C134.716 445.465 134.893 445.137 134.994 444.759L135.007 444.745H136.251V444.759C136.142 445.36 135.905 445.884 135.541 446.331C135.176 446.773 134.713 447.117 134.153 447.363C133.597 447.609 132.968 447.732 132.266 447.732ZM137.954 447.5V437.205H139.143V441.238H139.253C139.44 440.846 139.708 440.543 140.059 440.329C140.41 440.11 140.857 440.001 141.399 440.001C141.951 440.001 142.418 440.108 142.801 440.322C143.183 440.532 143.475 440.84 143.676 441.245C143.876 441.651 143.976 442.145 143.976 442.729V447.5H142.787V443.016C142.787 442.35 142.646 441.858 142.363 441.539C142.085 441.215 141.652 441.054 141.064 441.054C140.672 441.054 140.333 441.138 140.046 441.307C139.759 441.475 139.535 441.715 139.376 442.024C139.221 442.334 139.143 442.706 139.143 443.139V447.5H137.954ZM147.873 447.63C147.408 447.63 146.989 447.541 146.615 447.363C146.246 447.186 145.952 446.933 145.733 446.604C145.519 446.276 145.412 445.889 145.412 445.442V445.429C145.412 444.991 145.517 444.618 145.727 444.308C145.936 443.993 146.242 443.747 146.643 443.569C147.044 443.392 147.529 443.287 148.099 443.255L150.806 443.091V444.041L148.242 444.205C147.682 444.237 147.272 444.353 147.012 444.554C146.757 444.754 146.629 445.037 146.629 445.401V445.415C146.629 445.789 146.77 446.08 147.053 446.29C147.335 446.495 147.691 446.598 148.119 446.598C148.525 446.598 148.885 446.518 149.199 446.358C149.514 446.194 149.76 445.973 149.938 445.695C150.12 445.417 150.211 445.103 150.211 444.752V442.455C150.211 441.999 150.072 441.653 149.794 441.416C149.521 441.174 149.108 441.054 148.557 441.054C148.115 441.054 147.752 441.133 147.47 441.293C147.187 441.448 146.998 441.669 146.902 441.956L146.896 441.977H145.706L145.713 441.936C145.777 441.548 145.936 441.211 146.191 440.924C146.451 440.632 146.786 440.407 147.196 440.247C147.606 440.083 148.074 440.001 148.598 440.001C149.199 440.001 149.707 440.099 150.122 440.295C150.541 440.491 150.858 440.773 151.072 441.143C151.291 441.507 151.4 441.945 151.4 442.455V447.5H150.211V446.413H150.102C149.947 446.673 149.758 446.894 149.534 447.076C149.315 447.258 149.067 447.397 148.789 447.493C148.511 447.584 148.206 447.63 147.873 447.63ZM153.294 447.5V440.131H154.484V441.238H154.593C154.78 440.846 155.049 440.543 155.4 440.329C155.751 440.11 156.197 440.001 156.74 440.001C157.569 440.001 158.205 440.238 158.647 440.712C159.093 441.181 159.317 441.854 159.317 442.729V447.5H158.127V443.016C158.127 442.35 157.986 441.858 157.703 441.539C157.425 441.215 156.992 441.054 156.405 441.054C156.013 441.054 155.673 441.138 155.386 441.307C155.099 441.475 154.876 441.715 154.716 442.024C154.561 442.334 154.484 442.706 154.484 443.139V447.5H153.294ZM164.225 450.098C163.633 450.098 163.115 450.013 162.673 449.845C162.231 449.681 161.878 449.446 161.614 449.141C161.354 448.84 161.192 448.489 161.129 448.088L161.142 448.081H162.373L162.379 448.088C162.443 448.366 162.635 448.594 162.954 448.771C163.273 448.954 163.697 449.045 164.225 449.045C164.886 449.045 165.401 448.895 165.77 448.594C166.144 448.298 166.331 447.878 166.331 447.336V445.846H166.221C166.066 446.115 165.873 446.345 165.64 446.536C165.408 446.728 165.146 446.873 164.854 446.974C164.562 447.069 164.248 447.117 163.911 447.117C163.277 447.117 162.728 446.967 162.263 446.666C161.803 446.361 161.448 445.941 161.197 445.408C160.946 444.875 160.821 444.264 160.821 443.576V443.562C160.821 442.874 160.946 442.264 161.197 441.73C161.452 441.193 161.812 440.771 162.277 440.466C162.742 440.156 163.296 440.001 163.938 440.001C164.284 440.001 164.603 440.056 164.895 440.165C165.187 440.274 165.444 440.429 165.668 440.63C165.895 440.83 166.085 441.07 166.235 441.348H166.317V440.131H167.506V447.397C167.506 447.944 167.372 448.421 167.103 448.826C166.839 449.232 166.461 449.544 165.968 449.763C165.476 449.986 164.895 450.098 164.225 450.098ZM164.171 446.064C164.626 446.064 165.016 445.96 165.339 445.75C165.668 445.536 165.918 445.242 166.091 444.868C166.269 444.494 166.358 444.064 166.358 443.576V443.562C166.358 443.075 166.269 442.642 166.091 442.264C165.918 441.885 165.668 441.589 165.339 441.375C165.016 441.161 164.626 441.054 164.171 441.054C163.715 441.054 163.327 441.161 163.008 441.375C162.694 441.589 162.452 441.885 162.284 442.264C162.12 442.642 162.038 443.075 162.038 443.562V443.576C162.038 444.064 162.12 444.494 162.284 444.868C162.452 445.242 162.694 445.536 163.008 445.75C163.327 445.96 163.715 446.064 164.171 446.064ZM172.449 447.63C171.747 447.63 171.143 447.475 170.638 447.165C170.136 446.855 169.749 446.418 169.475 445.853C169.207 445.283 169.072 444.613 169.072 443.843V443.836C169.072 443.075 169.207 442.407 169.475 441.833C169.749 441.259 170.134 440.81 170.631 440.486C171.127 440.163 171.709 440.001 172.374 440.001C173.044 440.001 173.618 440.156 174.097 440.466C174.58 440.776 174.949 441.209 175.204 441.765C175.464 442.316 175.594 442.959 175.594 443.692V444.157H169.687V443.207H174.985L174.397 444.075V443.604C174.397 443.025 174.311 442.549 174.138 442.175C173.964 441.801 173.725 441.523 173.42 441.341C173.114 441.154 172.764 441.061 172.367 441.061C171.971 441.061 171.615 441.159 171.301 441.354C170.991 441.546 170.745 441.831 170.562 442.209C170.38 442.587 170.289 443.052 170.289 443.604V444.075C170.289 444.599 170.378 445.048 170.556 445.422C170.733 445.791 170.986 446.076 171.314 446.276C171.642 446.472 172.03 446.57 172.476 446.57C172.809 446.57 173.099 446.525 173.345 446.434C173.591 446.342 173.793 446.226 173.953 446.085C174.113 445.944 174.224 445.8 174.288 445.654L174.315 445.593H175.505L175.491 445.647C175.427 445.898 175.313 446.142 175.149 446.379C174.99 446.611 174.782 446.823 174.527 447.015C174.272 447.201 173.969 447.352 173.618 447.466C173.272 447.575 172.882 447.63 172.449 447.63ZM181.446 450.084C181.368 450.084 181.282 450.079 181.186 450.07C181.09 450.066 181.001 450.057 180.919 450.043V449.065C180.992 449.079 181.072 449.088 181.159 449.093C181.245 449.097 181.33 449.1 181.412 449.1C181.749 449.1 182.025 449.013 182.239 448.84C182.457 448.667 182.633 448.368 182.765 447.944L182.902 447.507L180.174 440.131H181.446L183.715 446.939L183.244 446.194H183.804L183.332 446.939L185.595 440.131H186.846L183.968 447.951C183.768 448.503 183.556 448.933 183.332 449.243C183.109 449.553 182.847 449.77 182.546 449.893C182.25 450.02 181.883 450.084 181.446 450.084ZM190.893 447.63C190.196 447.63 189.592 447.477 189.082 447.172C188.576 446.862 188.184 446.422 187.906 445.853C187.633 445.283 187.496 444.606 187.496 443.822V443.809C187.496 443.02 187.633 442.341 187.906 441.771C188.184 441.202 188.576 440.764 189.082 440.459C189.592 440.154 190.196 440.001 190.893 440.001C191.595 440.001 192.199 440.154 192.705 440.459C193.211 440.764 193.6 441.202 193.874 441.771C194.152 442.341 194.291 443.02 194.291 443.809V443.822C194.291 444.606 194.152 445.283 193.874 445.853C193.6 446.422 193.211 446.862 192.705 447.172C192.199 447.477 191.595 447.63 190.893 447.63ZM190.893 446.577C191.358 446.577 191.752 446.468 192.076 446.249C192.399 446.03 192.646 445.716 192.814 445.306C192.987 444.896 193.074 444.401 193.074 443.822V443.809C193.074 443.225 192.987 442.729 192.814 442.318C192.646 441.908 192.399 441.596 192.076 441.382C191.752 441.163 191.358 441.054 190.893 441.054C190.428 441.054 190.034 441.163 189.711 441.382C189.387 441.596 189.139 441.908 188.966 442.318C188.797 442.729 188.713 443.225 188.713 443.809V443.822C188.713 444.401 188.797 444.896 188.966 445.306C189.139 445.716 189.387 446.03 189.711 446.249C190.034 446.468 190.428 446.577 190.893 446.577ZM198.324 447.63C197.768 447.63 197.301 447.525 196.923 447.315C196.545 447.101 196.26 446.791 196.068 446.386C195.882 445.976 195.788 445.481 195.788 444.902V440.131H196.978V444.615C196.978 445.276 197.105 445.768 197.36 446.092C197.62 446.415 198.044 446.577 198.632 446.577C198.955 446.577 199.24 446.529 199.486 446.434C199.737 446.338 199.947 446.201 200.115 446.023C200.284 445.841 200.409 445.622 200.491 445.367C200.578 445.107 200.621 444.816 200.621 444.492V440.131H201.811V447.5H200.621V446.399H200.512C200.393 446.659 200.231 446.882 200.026 447.069C199.821 447.252 199.575 447.391 199.288 447.486C199.006 447.582 198.684 447.63 198.324 447.63ZM203.752 447.5V440.131H204.942V441.225H205.051C205.192 440.837 205.432 440.536 205.769 440.322C206.106 440.108 206.523 440.001 207.02 440.001C207.134 440.001 207.245 440.008 207.355 440.021C207.469 440.031 207.555 440.04 207.615 440.049V441.204C207.491 441.181 207.371 441.165 207.252 441.156C207.138 441.143 207.015 441.136 206.883 441.136C206.505 441.136 206.17 441.211 205.878 441.361C205.587 441.512 205.356 441.721 205.188 441.99C205.024 442.259 204.942 442.574 204.942 442.934V447.5H203.752ZM212.53 447.5V437.205H213.72V447.5H212.53ZM217.172 447.5L214.294 443.891L215.169 443.132L218.669 447.5H217.172ZM213.569 444.848L213.514 443.351H213.829L217.014 440.131H218.457L214.957 443.508L214.67 443.788L213.569 444.848ZM222.449 447.63C221.748 447.63 221.144 447.475 220.638 447.165C220.137 446.855 219.749 446.418 219.476 445.853C219.207 445.283 219.072 444.613 219.072 443.843V443.836C219.072 443.075 219.207 442.407 219.476 441.833C219.749 441.259 220.134 440.81 220.631 440.486C221.128 440.163 221.709 440.001 222.374 440.001C223.044 440.001 223.618 440.156 224.097 440.466C224.58 440.776 224.949 441.209 225.204 441.765C225.464 442.316 225.594 442.959 225.594 443.692V444.157H219.688V443.207H224.985L224.398 444.075V443.604C224.398 443.025 224.311 442.549 224.138 442.175C223.965 441.801 223.725 441.523 223.42 441.341C223.115 441.154 222.764 441.061 222.367 441.061C221.971 441.061 221.615 441.159 221.301 441.354C220.991 441.546 220.745 441.831 220.563 442.209C220.38 442.587 220.289 443.052 220.289 443.604V444.075C220.289 444.599 220.378 445.048 220.556 445.422C220.734 445.791 220.986 446.076 221.315 446.276C221.643 446.472 222.03 446.57 222.477 446.57C222.809 446.57 223.099 446.525 223.345 446.434C223.591 446.342 223.794 446.226 223.953 446.085C224.113 445.944 224.224 445.8 224.288 445.654L224.316 445.593H225.505L225.491 445.647C225.428 445.898 225.314 446.142 225.15 446.379C224.99 446.611 224.783 446.823 224.527 447.015C224.272 447.201 223.969 447.352 223.618 447.466C223.272 447.575 222.882 447.63 222.449 447.63ZM227.652 450.084C227.574 450.084 227.488 450.079 227.392 450.07C227.296 450.066 227.207 450.057 227.125 450.043V449.065C227.198 449.079 227.278 449.088 227.365 449.093C227.451 449.097 227.536 449.1 227.618 449.1C227.955 449.1 228.231 449.013 228.445 448.84C228.663 448.667 228.839 448.368 228.971 447.944L229.108 447.507L226.38 440.131H227.652L229.921 446.939L229.45 446.194H230.01L229.538 446.939L231.801 440.131H233.052L230.174 447.951C229.974 448.503 229.762 448.933 229.538 449.243C229.315 449.553 229.053 449.77 228.752 449.893C228.456 450.02 228.089 450.084 227.652 450.084ZM235.766 447.5L233.702 440.131H234.891L236.341 446.023H236.45L238.097 440.131H239.225L240.873 446.023H240.982L242.431 440.131H243.614L241.549 447.5H240.353L238.706 441.799H238.596L236.956 447.5H235.766ZM247.661 447.63C246.964 447.63 246.36 447.477 245.85 447.172C245.344 446.862 244.952 446.422 244.674 445.853C244.4 445.283 244.264 444.606 244.264 443.822V443.809C244.264 443.02 244.4 442.341 244.674 441.771C244.952 441.202 245.344 440.764 245.85 440.459C246.36 440.154 246.964 440.001 247.661 440.001C248.363 440.001 248.967 440.154 249.473 440.459C249.978 440.764 250.368 441.202 250.642 441.771C250.92 442.341 251.059 443.02 251.059 443.809V443.822C251.059 444.606 250.92 445.283 250.642 445.853C250.368 446.422 249.978 446.862 249.473 447.172C248.967 447.477 248.363 447.63 247.661 447.63ZM247.661 446.577C248.126 446.577 248.52 446.468 248.844 446.249C249.167 446.03 249.413 445.716 249.582 445.306C249.755 444.896 249.842 444.401 249.842 443.822V443.809C249.842 443.225 249.755 442.729 249.582 442.318C249.413 441.908 249.167 441.596 248.844 441.382C248.52 441.163 248.126 441.054 247.661 441.054C247.196 441.054 246.802 441.163 246.478 441.382C246.155 441.596 245.907 441.908 245.733 442.318C245.565 442.729 245.48 443.225 245.48 443.809V443.822C245.48 444.401 245.565 444.896 245.733 445.306C245.907 445.716 246.155 446.03 246.478 446.249C246.802 446.468 247.196 446.577 247.661 446.577ZM252.624 447.5V440.131H253.814V441.225H253.923C254.064 440.837 254.304 440.536 254.641 440.322C254.978 440.108 255.395 440.001 255.892 440.001C256.006 440.001 256.117 440.008 256.227 440.021C256.341 440.031 256.427 440.04 256.487 440.049V441.204C256.364 441.181 256.243 441.165 256.124 441.156C256.01 441.143 255.887 441.136 255.755 441.136C255.377 441.136 255.042 441.211 254.75 441.361C254.459 441.512 254.228 441.721 254.06 441.99C253.896 442.259 253.814 442.574 253.814 442.934V447.5H252.624ZM260.192 447.63C259.572 447.63 259.03 447.473 258.565 447.158C258.1 446.844 257.74 446.402 257.485 445.832C257.23 445.258 257.102 444.588 257.102 443.822V443.809C257.102 443.038 257.23 442.368 257.485 441.799C257.74 441.229 258.098 440.787 258.558 440.473C259.023 440.158 259.568 440.001 260.192 440.001C260.529 440.001 260.846 440.056 261.142 440.165C261.443 440.27 261.71 440.418 261.942 440.609C262.174 440.801 262.357 441.029 262.489 441.293H262.598V437.205H263.788V447.5H262.598V446.324H262.489C262.338 446.598 262.149 446.832 261.921 447.028C261.694 447.22 261.434 447.368 261.142 447.473C260.85 447.577 260.534 447.63 260.192 447.63ZM260.465 446.577C260.912 446.577 261.297 446.465 261.621 446.242C261.944 446.019 262.193 445.702 262.366 445.292C262.539 444.877 262.626 444.387 262.626 443.822V443.809C262.626 443.239 262.539 442.749 262.366 442.339C262.193 441.929 261.944 441.612 261.621 441.389C261.297 441.165 260.912 441.054 260.465 441.054C260.019 441.054 259.634 441.165 259.31 441.389C258.991 441.607 258.745 441.922 258.572 442.332C258.403 442.742 258.319 443.234 258.319 443.809V443.822C258.319 444.392 258.403 444.884 258.572 445.299C258.745 445.709 258.991 446.026 259.31 446.249C259.634 446.468 260.019 446.577 260.465 446.577Z" fill="#A4A7AE"/>
<defs>
<clipPath id="clip0_41447_8767">
<rect width="16" height="16" fill="white" transform="translate(309 24)"/>
</clipPath>
</defs>
</svg>
